<svg width="107" xmlns="http://www.w3.org/2000/svg" height="109" id="screenshot-ab7713a3-05fa-809c-8007-888c1972e106" viewBox="7466.766 398.512 107 109" xmlns:xlink="http://www.w3.org/1999/xlink" fill="none" version="1.1"><g id="shape-ab7713a3-05fa-809c-8007-888c1972e106"><g class="fills" id="fills-ab7713a3-05fa-809c-8007-888c1972e106"><path d="M7501.20556640625,480.8334655761719L7500.88623046875,480.67181396484375C7498.65380859375,479.5332946777344,7497.0615234375,476.9299011230469,7496.419921875,476.76824951171875C7496.419921875,476.76824951171875,7495.3046875,476.1180725097656,7495.3046875,475.9532165527344C7495.3046875,475.9532165527344,7494.50439453125,476.1148681640625,7493.38916015625,476.1148681640625C7493.38916015625,476.1148681640625,7492.91064453125,475.9532165527344,7492.91064453125,476.2765197753906C7492.91064453125,476.2765197753906,7492.7529296875,476.7648620605469,7492.7529296875,476.926513671875L7492.27392578125,477.0881652832031C7492.27392578125,477.0881652832031,7491.794921875,476.926513671875,7491.63623046875,477.5765075683594C7491.63623046875,477.5765075683594,7491.31640625,478.3915710449219,7490.83740234375,479.041748046875C7490.83740234375,479.041748046875,7490.83740234375,479.3682556152344,7490.3583984375,479.6917419433594C7490.3583984375,479.6917419433594,7489.56005859375,479.6917419433594,7488.92333984375,480.1800842285156C7488.92333984375,480.1800842285156,7488.28564453125,480.34173583984375,7488.4443359375,481.31842041015625C7488.4443359375,481.31842041015625,7488.92333984375,481.9686279296875,7488.92333984375,482.4567565917969C7488.92333984375,482.4567565917969,7489.0810546875,483.1069641113281,7489.0810546875,483.5953063964844C7489.0810546875,483.5953063964844,7489.0810546875,484.0836486816406,7489.240234375,484.41033935546875C7489.240234375,484.41033935546875,7489.39892578125,484.7370300292969,7489.39892578125,485.0603332519531C7489.39892578125,485.0603332519531,7488.92041015625,485.7105407714844,7489.240234375,485.8753967285156C7489.240234375,485.8753967285156,7489.56005859375,486.3637390136719,7490.833984375,485.8753967285156C7490.833984375,485.8753967285156,7491.31298828125,485.7137451171875,7491.6328125,485.7137451171875C7491.6328125,485.7137451171875,7492.11181640625,486.20208740234375,7492.431640625,485.5520935058594C7492.5908203125,485.39044189453125,7492.5908203125,485.06353759765625,7492.91064453125,485.06353759765625C7492.91064453125,485.06353759765625,7493.54833984375,484.57537841796875,7493.8681640625,485.06353759765625C7493.8681640625,485.06353759765625,7494.18798828125,484.9018859863281,7494.34716796875,485.8785705566406C7494.34716796875,485.8785705566406,7494.50439453125,486.36712646484375,7494.826171875,486.5287780761719C7494.826171875,486.5287780761719,7495.14599609375,486.36712646484375,7495.46240234375,486.36712646484375C7495.46240234375,486.36712646484375,7495.78369140625,486.0404357910156,7495.78369140625,486.693603515625C7495.78369140625,486.693603515625,7496.103515625,487.8321533203125,7496.89892578125,488.1588439941406C7496.89892578125,488.1588439941406,7497.056640625,489.1355285644531,7498.97216796875,488.32049560546875C7498.97216796875,488.32049560546875,7499.6083984375,487.9938049316406,7499.92822265625,487.5054626464844C7499.92822265625,487.5054626464844,7499.44921875,487.17877197265625,7500.08740234375,486.6904296875C7500.08740234375,486.6904296875,7500.4072265625,486.8520812988281,7500.88623046875,485.39044189453125C7500.88623046875,485.39044189453125,7501.6845703125,484.57537841796875,7501.044921875,483.1135559082031C7501.044921875,483.1135559082031,7500.88623046875,482.786865234375,7501.20263671875,482.29852294921875C7501.20263671875,482.29852294921875,7501.36181640625,482.13665771484375,7501.36181640625,481.8101806640625L7501.36181640625,481.48345947265625L7501.20263671875,480.8334655761719C7501.044921875,480.8334655761719,7501.044921875,480.67181396484375,7500.8828125,480.67181396484375C7500.8828125,480.8334655761719,7501.0419921875,480.8334655761719,7501.20263671875,480.8334655761719L7501.20556640625,480.8334655761719ZM7488.45068359375,470.2577209472656C7488.45068359375,470.2577209472656,7483.0302734375,471.0727844238281,7472.82275390625,477.9031982421875C7481.7529296875,495.4742431640625,7499.61181640625,507.5118103027344,7520.34375,507.5118103027344L7520.5009765625,507.5118103027344C7542.82763671875,507.5118103027344,7562.75927734375,493.35601806640625,7570.412109375,472.0462646484375C7569.77392578125,472.3729553222656,7566.90234375,472.6962585449219,7566.90234375,472.6962585449219L7566.7431640625,473.51129150390625L7566.265625,473.9996337890625C7565.9443359375,474.9763488769531,7565.787109375,474.9763488769531,7565.787109375,474.9763488769531L7564.5126953125,475.13818359375L7563.23828125,477.2532043457031C7562.91845703125,477.5799255371094,7562.439453125,477.5799255371094,7562.439453125,477.5799255371094C7561.9609375,477.5799255371094,7561.9609375,476.7648620605469,7561.9609375,476.7648620605469C7562.1201171875,475.9498291015625,7561.8017578125,474.9763488769531,7561.8017578125,474.9763488769531C7561.64404296875,474.9763488769531,7561.4814453125,474.814697265625,7561.32421875,474.814697265625L7561.32421875,473.3496398925781L7561.0029296875,473.3496398925781C7552.39404296875,474.649658203125,7545.53515625,473.51129150390625,7545.53515625,473.51129150390625C7545.056640625,473.3496398925781,7545.056640625,473.6729431152344,7545.056640625,473.6729431152344C7544.57763671875,474.4880065917969,7543.939453125,475.13818359375,7543.939453125,475.13818359375C7543.6201171875,475.6263427734375,7543.939453125,475.9532165527344,7543.939453125,476.2765197753906C7543.939453125,478.22991943359375,7543.6201171875,479.041748046875,7543.6201171875,479.041748046875C7543.4609375,480.830078125,7542.345703125,481.1567687988281,7542.345703125,481.1567687988281C7541.86669921875,481.31842041015625,7540.7509765625,482.29510498046875,7540.7509765625,482.29510498046875C7540.2724609375,482.4567565917969,7540.4296875,482.9453125,7540.4296875,482.9453125C7540.4296875,483.1069641113281,7540.9091796875,483.9219970703125,7540.9091796875,483.9219970703125C7541.06787109375,485.0603332519531,7540.2724609375,486.0370178222656,7540.2724609375,486.0370178222656C7539.4736328125,486.8520812988281,7539.4736328125,487.50225830078125,7539.4736328125,487.50225830078125C7538.9951171875,488.80224609375,7537.720703125,491.08233642578125,7537.720703125,491.08233642578125L7536.60546875,493.19757080078125C7536.12646484375,493.6859130859375,7535.806640625,494.3359069824219,7535.490234375,494.986083984375C7535.3310546875,495.3125915527344,7535.3310546875,496.1244201660156,7535.3310546875,496.1244201660156C7535.3310546875,496.6125793457031,7534.85205078125,496.7744140625,7534.85205078125,496.7744140625C7534.5322265625,496.9360656738281,7534.5322265625,497.4244079589844,7534.5322265625,497.4244079589844L7534.85205078125,498.5627746582031C7534.85205078125,499.3778076171875,7534.5322265625,499.5394592285156,7534.5322265625,499.5394592285156C7534.05322265625,499.21295166015625,7529.9072265625,495.6358947753906,7531.50146484375,494.9826965332031L7531.66015625,494.16766357421875C7531.66015625,493.6793212890625,7531.181640625,493.3526306152344,7531.181640625,493.02911376953125C7531.0224609375,492.70263671875,7531.0224609375,492.2140808105469,7530.8603515625,491.8907775878906C7530.3828125,491.07574462890625,7530.70263671875,490.4257507324219,7530.70263671875,490.4257507324219C7530.70263671875,489.9374084472656,7531.3388671875,488.9607238769531,7531.3388671875,488.9607238769531L7531.01953125,487.8223876953125C7530.69921875,487.17218017578125,7530.69921875,485.7071533203125,7530.69921875,485.7071533203125C7530.8583984375,485.21881103515625,7531.01953125,484.8921203613281,7531.01953125,484.8921203613281C7530.69921875,484.0770568847656,7530.54052734375,480.9885559082031,7530.54052734375,480.9885559082031C7530.3828125,480.5002136230469,7529.74169921875,480.1734924316406,7529.74169921875,480.1734924316406C7528.943359375,479.6851501464844,7528.30517578125,479.52349853515625,7528.30517578125,479.52349853515625C7527.828125,479.3618469238281,7527.50634765625,478.05828857421875,7527.50634765625,478.05828857421875C7527.50634765625,477.5699462890625,7527.02734375,477.0815734863281,7527.02734375,477.0815734863281C7526.8701171875,476.5932312011719,7526.55029296875,476.26654052734375,7526.55029296875,476.26654052734375C7526.39111328125,475.7781982421875,7526.0712890625,475.4515075683594,7526.0712890625,475.4515075683594C7525.912109375,475.12481689453125,7525.2724609375,473.9864807128906,7525.2724609375,473.9864807128906C7525.11328125,473.8248291015625,7525.2724609375,473.4981384277344,7525.2724609375,473.4981384277344L7525.75,473.0097961425781L7524.951171875,472.19476318359375L7526.2255859375,469.4295349121094C7526.2255859375,469.4295349121094,7514.2666015625,464.2225646972656,7493.5341796875,469.26788330078125L7493.21435546875,469.4295349121094L7494.01318359375,469.9178771972656C7494.01318359375,469.9178771972656,7494.171875,470.4062194824219,7493.85546875,470.73291015625C7493.85546875,470.73291015625,7493.37646484375,471.0596008300781,7492.8974609375,471.22125244140625C7492.8974609375,471.22125244140625,7492.259765625,471.38311767578125,7492.4189453125,471.7095947265625C7492.4189453125,471.7095947265625,7493.05517578125,471.8712463378906,7493.05517578125,472.35980224609375C7493.05517578125,472.35980224609375,7492.8974609375,472.8479309082031,7492.09912109375,472.8479309082031C7492.09912109375,472.8479309082031,7491.6201171875,472.35980224609375,7491.30029296875,472.5214538574219C7491.30029296875,472.5214538574219,7490.8212890625,472.68310546875,7490.18505859375,472.68310546875C7490.18505859375,472.68310546875,7489.38623046875,472.8447570800781,7488.74853515625,472.19476318359375C7488.74853515625,471.37969970703125,7488.26953125,470.7297058105469,7488.4287109375,470.2411804199219L7488.45068359375,470.2577209472656ZM7570.57275390625,434.3040466308594C7569.1376953125,435.6040344238281,7568.0205078125,435.7688903808594,7568.0205078125,435.7688903808594C7567.701171875,433.1654968261719,7563.716796875,426.1700134277344,7563.716796875,426.1700134277344L7563.23828125,426.00836181640625L7563.0810546875,426.3350524902344C7563.0810546875,426.3350524902344,7562.921875,426.17340087890625,7562.6015625,426.3350524902344C7562.2802734375,426.3350524902344,7562.44287109375,426.17340087890625,7562.44287109375,426.17340087890625L7562.28369140625,425.5234069824219C7562.28369140625,425.5234069824219,7561.8046875,425.36175537109375,7561.48486328125,425.36175537109375C7561.1650390625,425.36175537109375,7561.1650390625,425.1999206542969,7561.1650390625,425.1999206542969L7562.2802734375,425.03826904296875L7562.91845703125,424.8766174316406C7562.91845703125,424.8766174316406,7562.75927734375,424.06158447265625,7562.1201171875,423.7380676269531C7562.1201171875,423.7380676269531,7561.3212890625,423.4115905761719,7561.0029296875,423.24993896484375C7561.0029296875,423.24993896484375,7560.525390625,423.24993896484375,7560.2041015625,423.08807373046875C7560.2041015625,423.08807373046875,7559.884765625,422.5997314453125,7559.884765625,422.4380798339844C7559.884765625,422.4380798339844,7558.9267578125,422.27642822265625,7558.130859375,422.4380798339844C7558.130859375,422.4380798339844,7557.015625,422.27642822265625,7556.6943359375,422.9264221191406C7556.6943359375,422.9264221191406,7555.8955078125,423.08807373046875,7555.8955078125,424.0649719238281C7555.8955078125,424.22662353515625,7556.0546875,424.5531311035156,7555.73828125,425.20330810546875C7555.5810546875,425.3649597167969,7555.73828125,425.691650390625,7555.10205078125,426.0183410644531C7555.10205078125,426.0183410644531,7554.30322265625,426.3448486328125,7554.14453125,426.5066833496094C7554.14453125,426.5066833496094,7554.30322265625,426.8333740234375,7554.4638671875,427.64501953125C7554.4638671875,427.97174072265625,7554.623046875,428.4600830078125,7554.94287109375,428.4600830078125L7555.7412109375,428.4600830078125C7555.7412109375,428.4600830078125,7556.220703125,427.97174072265625,7556.3798828125,428.2984313964844C7556.3798828125,428.4600830078125,7556.85693359375,428.4600830078125,7557.015625,428.7867736816406C7557.015625,428.7867736816406,7557.17333984375,429.601806640625,7557.65234375,429.7634582519531L7558.451171875,429.601806640625C7558.451171875,429.601806640625,7558.7724609375,428.7867736816406,7558.7724609375,428.30181884765625L7558.7724609375,428.1401672363281L7559.091796875,427.8132629394531L7558.4541015625,427.16326904296875C7558.4541015625,427.16326904296875,7558.13427734375,427.0016174316406,7558.296875,426.3482360839844C7558.296875,426.3482360839844,7558.4541015625,424.8832092285156,7558.775390625,424.8832092285156C7558.775390625,424.8832092285156,7559.412109375,424.7215576171875,7559.2529296875,425.04486083984375C7559.2529296875,425.04486083984375,7559.412109375,425.533203125,7559.09521484375,425.8598937988281C7558.9375,426.18658447265625,7558.6162109375,426.3482360839844,7558.9375,426.99822998046875C7558.9375,426.99822998046875,7559.2578125,427.32513427734375,7559.89404296875,427.4867858886719C7559.89404296875,427.4867858886719,7560.373046875,427.32513427734375,7560.6923828125,427.4867858886719C7560.6923828125,427.4867858886719,7561.171875,427.97491455078125,7560.8515625,427.97491455078125L7560.05322265625,428.13677978515625C7560.05322265625,428.13677978515625,7559.89404296875,427.97491455078125,7559.89404296875,428.7867736816406C7559.89404296875,429.11346435546875,7560.2138671875,429.2751159667969,7559.89404296875,429.2751159667969C7559.73486328125,429.2751159667969,7559.57421875,429.11346435546875,7559.57421875,429.11346435546875C7559.57421875,429.11346435546875,7559.2529296875,428.95159912109375,7559.4150390625,429.601806640625C7559.57421875,430.09014892578125,7559.4150390625,430.4168395996094,7559.4150390625,430.4168395996094C7559.4150390625,430.4168395996094,7558.77880859375,430.25518798828125,7558.6162109375,430.4168395996094C7558.6162109375,430.4168395996094,7558.296875,430.5784912109375,7558.296875,431.3935241699219C7558.296875,431.3935241699219,7558.13916015625,432.20855712890625,7558.296875,432.5318603515625C7558.296875,432.5318603515625,7557.66015625,432.5318603515625,7557.66015625,432.3702087402344L7557.3388671875,431.72021484375L7557.181640625,430.5816955566406C7557.181640625,430.5816955566406,7557.0224609375,429.76666259765625,7556.7021484375,429.76666259765625L7555.90380859375,429.76666259765625C7555.90380859375,429.76666259765625,7555.583984375,429.4401550292969,7555.74462890625,430.0935363769531C7555.74462890625,430.0935363769531,7555.90380859375,430.5816955566406,7555.90380859375,430.9085693359375C7555.90380859375,430.9085693359375,7556.0615234375,431.396728515625,7555.74462890625,431.396728515625C7555.5869140625,431.5585632324219,7555.4248046875,431.2350769042969,7555.265625,431.5585632324219C7555.265625,431.5585632324219,7554.787109375,431.5585632324219,7555.1083984375,432.20855712890625C7555.1083984375,432.3702087402344,7555.1083984375,432.6969299316406,7555.42822265625,433.02362060546875C7555.9072265625,433.1852722167969,7555.5869140625,433.1852722167969,7555.5869140625,433.1852722167969L7554.470703125,433.346923828125C7554.470703125,433.346923828125,7554.3125,433.1852722167969,7553.9912109375,433.5085754394531L7553.833984375,434.3236083984375L7552.716796875,434.3236083984375L7553.515625,435.4621276855469L7553.6748046875,436.6004638671875C7553.515625,436.92718505859375,7553.1962890625,436.7623291015625,7553.1962890625,436.7623291015625L7551.921875,436.7623291015625C7551.28515625,436.9239807128906,7551.7626953125,438.2271728515625,7551.7626953125,438.2271728515625L7551.921875,440.01568603515625L7553.03857421875,440.5042419433594L7553.6748046875,440.6658935546875L7554.7900390625,440.3389892578125C7555.26904296875,440.01251220703125,7555.5888671875,439.2006530761719,7555.5888671875,439.2006530761719L7555.91015625,438.2239685058594C7555.91015625,437.89727783203125,7556.38916015625,437.7356262207031,7556.38916015625,437.7356262207031L7557.34521484375,437.573974609375L7557.34521484375,437.08563232421875L7557.82421875,437.08563232421875L7557.9833984375,437.7356262207031L7558.4619140625,438.06231689453125L7558.94091796875,438.5506591796875L7559.73974609375,439.03900146484375L7560.5380859375,439.2006530761719L7560.37890625,438.5506591796875C7560.37890625,438.06231689453125,7559.42138671875,437.573974609375,7559.42138671875,437.573974609375C7558.9443359375,437.08563232421875,7558.9443359375,436.10894775390625,7558.9443359375,436.10894775390625C7558.78515625,437.08563232421875,7560.37890625,437.573974609375,7560.37890625,437.573974609375C7561.177734375,438.06231689453125,7561.017578125,438.7123107910156,7561.017578125,438.7123107910156C7560.5380859375,439.8508605957031,7561.49609375,439.8508605957031,7561.49609375,439.8508605957031L7561.017578125,440.01251220703125C7560.5380859375,440.5008544921875,7558.9443359375,440.8275451660156,7558.9443359375,440.8275451660156C7558.46533203125,440.6658935546875,7557.0283203125,440.6658935546875,7557.0283203125,440.6658935546875C7555.591796875,440.5042419433594,7555.275390625,441.4809265136719,7555.275390625,441.4809265136719C7554.95556640625,441.9690856933594,7554.79638671875,441.9690856933594,7554.79638671875,441.9690856933594C7553.998046875,441.80743408203125,7553.68115234375,441.80743408203125,7553.68115234375,441.80743408203125C7552.8828125,441.6457824707031,7552.564453125,442.4576110839844,7552.564453125,442.4576110839844C7552.40673828125,442.9459533691406,7552.24462890625,442.9459533691406,7552.24462890625,442.9459533691406C7535.5009765625,447.5027160644531,7528.32568359375,445.71099853515625,7528.32568359375,445.71099853515625L7528.8046875,445.5493469238281L7529.919921875,445.3876953125C7530.0791015625,445.2260437011719,7529.7607421875,444.5726623535156,7529.7607421875,444.5726623535156L7529.919921875,444.08428955078125C7530.0791015625,443.595947265625,7530.39892578125,443.7575988769531,7530.39892578125,443.7575988769531C7530.71875,443.595947265625,7530.71875,443.2692565917969,7530.71875,443.2692565917969C7530.8779296875,442.94256591796875,7531.197265625,443.10760498046875,7531.197265625,443.10760498046875L7531.99609375,443.4342956542969L7532.794921875,443.10760498046875L7533.2734375,442.6192626953125C7533.59375,442.13092041015625,7532.9521484375,441.9690856933594,7532.9521484375,441.9690856933594C7532.6337890625,441.8612976074219,7532.4228515625,441.80743408203125,7532.31591796875,441.80743408203125C7531.99609375,441.6457824707031,7531.99609375,441.31927490234375,7531.99609375,441.31927490234375C7532.1552734375,440.83074951171875,7531.99609375,440.3423767089844,7531.99609375,440.3423767089844C7532.1552734375,439.8540344238281,7531.67626953125,440.01568603515625,7531.67626953125,440.01568603515625C7531.3564453125,439.8540344238281,7531.197265625,439.52734375,7531.197265625,439.2006530761719C7531.0380859375,438.7123107910156,7531.833984375,439.2006530761719,7531.833984375,439.2006530761719L7533.427734375,439.2006530761719C7534.7021484375,439.03900146484375,7534.544921875,438.7123107910156,7534.544921875,438.7123107910156C7534.7021484375,438.5506591796875,7535.34375,438.2239685058594,7535.34375,438.2239685058594C7535.34375,438.2239685058594,7535.34375,438.06231689453125,7535.822265625,437.7356262207031C7536.30126953125,437.2472839355469,7535.5009765625,436.7589416503906,7535.5009765625,436.7589416503906C7535.34375,436.5970764160156,7534.7021484375,436.2705993652344,7534.3857421875,435.94390869140625C7534.2265625,435.45556640625,7533.427734375,435.45556640625,7533.427734375,435.45556640625C7533.1083984375,435.2939147949219,7533.1083984375,434.31719970703125,7533.1083984375,434.31719970703125C7532.94921875,433.1786804199219,7532.62939453125,432.85198974609375,7532.62939453125,432.85198974609375C7532.3095703125,432.3636474609375,7531.51416015625,432.6903381347656,7531.51416015625,432.6903381347656C7530.71533203125,433.34051513671875,7530.71533203125,433.50537109375,7530.71533203125,433.50537109375C7530.3974609375,433.61334228515625,7530.236328125,433.55926513671875,7530.236328125,433.3437194824219C7530.0791015625,433.01702880859375,7530.39404296875,432.6935119628906,7530.39404296875,432.6935119628906C7530.39404296875,432.6935119628906,7530.07421875,433.5085754394531,7530.39404296875,432.5318603515625C7530.71533203125,431.55517578125,7530.07421875,432.0437316894531,7530.07421875,432.0437316894531C7529.5966796875,431.55517578125,7528.322265625,431.22869873046875,7528.322265625,431.22869873046875C7526.8857421875,430.90179443359375,7526.5693359375,431.06683349609375,7526.5693359375,431.06683349609375C7526.09033203125,431.06683349609375,7526.09033203125,431.3935241699219,7526.41015625,432.20538330078125C7526.5693359375,432.8553771972656,7526.2529296875,433.18206787109375,7526.2529296875,433.18206787109375C7525.77392578125,433.67041015625,7526.09375,434.3204040527344,7526.09375,434.3204040527344C7526.09375,434.8087463378906,7526.572265625,435.2970886230469,7526.572265625,435.2970886230469C7526.572265625,435.623779296875,7526.09375,435.78564453125,7526.09375,435.78564453125C7525.61474609375,435.9472961425781,7525.45556640625,436.9239807128906,7525.45556640625,436.9239807128906C7524.978515625,437.4121398925781,7525.61474609375,437.739013671875,7525.61474609375,437.739013671875C7525.77392578125,438.2271728515625,7525.45556640625,439.20404052734375,7525.45556640625,439.20404052734375C7524.978515625,439.6923828125,7524.978515625,439.0422058105469,7524.978515625,439.0422058105469C7524.8193359375,438.5540466308594,7524.978515625,437.7422180175781,7524.978515625,437.7422180175781C7525.1357421875,436.92718505859375,7524.49951171875,436.6038818359375,7524.49951171875,436.6038818359375C7524.0205078125,436.4422302246094,7523.70068359375,436.6038818359375,7523.5419921875,436.6038818359375C7522.90380859375,436.4422302246094,7522.7431640625,436.1153259277344,7522.7431640625,436.1153259277344C7522.26416015625,435.30029296875,7521.9443359375,435.30029296875,7521.9443359375,435.30029296875C7521.4658203125,435.1386413574219,7521.1455078125,435.4621276855469,7521.1455078125,435.4621276855469L7520.3466796875,435.4621276855469L7520.3466796875,434.9737854003906C7520.3466796875,434.4854431152344,7520.025390625,434.6470947265625,7520.025390625,434.6470947265625C7519.546875,434.4854431152344,7519.8681640625,433.67041015625,7519.8681640625,433.67041015625L7520.18798828125,433.18206787109375C7520.3466796875,432.6935119628906,7521.1455078125,431.8818664550781,7521.1455078125,431.8818664550781L7522.2607421875,430.7435302734375L7522.73974609375,430.5816955566406C7522.5810546875,431.0702209472656,7523.21875,431.0702209472656,7523.21875,431.0702209472656C7523.53857421875,431.23187255859375,7524.017578125,430.9085693359375,7524.017578125,430.9085693359375L7524.3369140625,430.7469177246094L7524.81640625,430.5850830078125C7525.294921875,430.5850830078125,7525.294921875,430.2583923339844,7525.294921875,430.2583923339844C7525.4541015625,429.931884765625,7525.1357421875,429.6083984375,7525.1357421875,429.6083984375L7524.49951171875,428.9584045410156C7524.34033203125,428.7967529296875,7524.6572265625,428.6317138671875,7524.6572265625,428.6317138671875L7525.45556640625,427.816650390625C7525.77734375,427.6549987792969,7525.61474609375,426.8399658203125,7525.61474609375,426.8399658203125L7525.294921875,425.7014465332031C7525.1357421875,425.2132873535156,7525.77392578125,425.37493896484375,7525.77392578125,425.37493896484375L7526.572265625,425.37493896484375C7527.0517578125,425.5365905761719,7528.32568359375,426.8399658203125,7528.32568359375,426.8399658203125C7528.6455078125,427.32830810546875,7528.32568359375,427.9783020019531,7528.32568359375,427.9783020019531C7527.8466796875,428.7933654785156,7527.3681640625,428.4666442871094,7527.3681640625,428.4666442871094C7526.7314453125,428.6282958984375,7526.5693359375,428.6282958984375,7526.2529296875,428.7933654785156C7525.61474609375,428.95501708984375,7526.41015625,429.2817077636719,7526.7314453125,429.2817077636719C7527.0517578125,429.443359375,7527.8466796875,429.2817077636719,7527.8466796875,429.2817077636719C7528.1669921875,429.2817077636719,7528.32568359375,429.443359375,7528.32568359375,429.443359375L7529.283203125,430.5816955566406C7530.08203125,430.9085693359375,7531.3564453125,430.7435302734375,7531.3564453125,430.7435302734375L7531.3564453125,430.4168395996094L7531.51416015625,430.25518798828125L7532.150390625,430.0935363769531C7532.4716796875,429.931884765625,7532.3095703125,429.6050109863281,7532.3095703125,429.6050109863281L7531.671875,429.1168518066406L7531.1943359375,428.30181884765625L7532.46875,428.30181884765625C7533.4248046875,427.8132629394531,7532.78857421875,427.16326904296875,7532.78857421875,427.16326904296875C7532.62939453125,426.8365783691406,7531.98974609375,426.3482360839844,7531.98974609375,426.3482360839844L7531.19140625,425.8598937988281C7531.0322265625,425.6982421875,7531.3486328125,425.3715515136719,7531.3486328125,425.3715515136719C7531.82763671875,425.04486083984375,7531.5078125,424.7215576171875,7531.5078125,424.7215576171875C7531.3486328125,424.3948669433594,7530.5498046875,424.2330017089844,7530.5498046875,424.2330017089844C7530.0712890625,424.07135009765625,7530.0712890625,423.9065246582031,7530.0712890625,423.9065246582031C7529.7509765625,423.744873046875,7529.2724609375,423.41796875,7528.9560546875,423.2563171386719C7528.4765625,423.09466552734375,7527.8408203125,423.41796875,7527.8408203125,423.41796875C7527.20263671875,423.579833984375,7526.7255859375,423.41796875,7526.7255859375,423.41796875C7526.24609375,423.0914611816406,7526.8828125,423.0914611816406,7526.8828125,423.0914611816406C7527.20263671875,422.9298400878906,7527.20263671875,422.6029357910156,7527.20263671875,422.6029357910156C7527.20263671875,422.27642822265625,7526.7255859375,422.4412841796875,7526.7255859375,422.4412841796875C7526.24609375,422.2796325683594,7525.28857421875,422.6029357910156,7525.28857421875,422.6029357910156C7524.490234375,422.6029357910156,7524.3310546875,423.25311279296875,7524.3310546875,423.25311279296875C7523.85205078125,423.4147644042969,7523.373046875,423.25311279296875,7523.373046875,423.25311279296875C7522.736328125,423.25311279296875,7522.4169921875,424.2298278808594,7522.4169921875,424.2298278808594C7522.2578125,424.7181701660156,7522.8955078125,425.3681640625,7522.8955078125,425.3681640625L7523.6943359375,425.5298156738281C7523.85205078125,425.856689453125,7523.53515625,426.5066833496094,7523.53515625,426.5066833496094C7523.056640625,426.9950256347656,7522.736328125,426.6683349609375,7522.736328125,426.6683349609375C7522.736328125,426.6683349609375,7522.4169921875,426.3416442871094,7522.0986328125,426.3416442871094C7521.7822265625,426.3416442871094,7521.94140625,426.17999267578125,7521.94140625,426.17999267578125C7521.94140625,425.3649597167969,7521.7822265625,425.3649597167969,7521.7822265625,425.3649597167969C7521.7822265625,425.03826904296875,7521.623046875,424.8766174316406,7521.46240234375,424.5499267578125C7521.30322265625,424.06158447265625,7521.62109375,423.7348937988281,7521.62109375,423.7348937988281C7521.77880859375,423.5732421875,7522.0986328125,423.0846862792969,7522.0986328125,423.0846862792969C7522.2578125,422.5965576171875,7521.62109375,422.5965576171875,7521.62109375,422.5965576171875C7520.9833984375,422.4349060058594,7520.66357421875,422.92303466796875,7520.1845703125,422.92303466796875C7519.7060546875,422.92303466796875,7519.865234375,423.4115905761719,7519.865234375,423.4115905761719L7520.1845703125,424.06158447265625L7519.865234375,424.3882751464844C7519.3857421875,424.5499267578125,7519.3857421875,425.526611328125,7519.3857421875,425.526611328125C7519.22705078125,426.17681884765625,7519.865234375,426.17681884765625,7519.865234375,426.17681884765625L7520.5009765625,426.5032958984375C7520.66015625,426.8299865722656,7520.0224609375,426.9918518066406,7520.0224609375,426.9918518066406C7519.06640625,427.3183288574219,7519.54345703125,427.6416320800781,7519.54345703125,427.6416320800781C7519.54345703125,427.8034973144531,7519.2236328125,427.8034973144531,7518.9072265625,427.8034973144531C7518.5908203125,427.8034973144531,7518.1083984375,427.3151550292969,7518.1083984375,427.3151550292969C7517.7890625,427.15350341796875,7517.3095703125,427.476806640625,7517.3095703125,427.476806640625L7516.35205078125,427.8034973144531C7515.5537109375,427.8034973144531,7515.23681640625,427.8034973144531,7514.9169921875,427.96514892578125C7514.43798828125,428.1268005371094,7514.595703125,428.2918395996094,7514.595703125,428.2918395996094C7513.6396484375,427.8034973144531,7512.203125,428.13018798828125,7512.203125,428.13018798828125L7512.203125,427.6416320800781C7512.203125,427.47998046875,7511.8828125,427.47998046875,7511.8828125,427.47998046875L7511.083984375,427.3183288574219C7510.28564453125,426.8299865722656,7509.48828125,426.9918518066406,7509.48828125,426.9918518066406C7508.85205078125,426.9918518066406,7508.5322265625,427.47998046875,7508.5322265625,427.47998046875C7508.05322265625,427.6416320800781,7508.05322265625,427.3183288574219,7508.05322265625,427.3183288574219C7507.57470703125,426.6683349609375,7507.2548828125,426.8299865722656,7507.2548828125,426.8299865722656C7506.77587890625,426.8299865722656,7506.77587890625,426.9918518066406,7506.77587890625,426.9918518066406L7506.296875,427.15350341796875C7505.81787109375,427.3151550292969,7504.8603515625,427.9685363769531,7504.8603515625,427.9685363769531C7504.0615234375,428.4566650390625,7503.904296875,428.4566650390625,7503.904296875,428.4566650390625C7503.58251953125,428.4566650390625,7503.10400390625,427.9685363769531,7503.10400390625,427.9685363769531C7502.30517578125,427.806884765625,7501.6689453125,428.13018798828125,7501.6689453125,428.13018798828125C7500.5537109375,428.2918395996094,7499.595703125,427.9685363769531,7499.595703125,427.9685363769531C7498.63818359375,427.806884765625,7498.48046875,427.806884765625,7498.48046875,427.806884765625C7498.16064453125,427.64501953125,7497.5224609375,427.9685363769531,7497.5224609375,427.9685363769531L7495.76953125,427.9685363769531C7495.1328125,428.13018798828125,7494.33447265625,429.4333801269531,7494.33447265625,429.4333801269531C7494.17529296875,429.76025390625,7494.01318359375,429.9219055175781,7493.85546875,430.2484130859375L7493.21728515625,430.0867614746094C7492.5810546875,430.2484130859375,7492.73876953125,430.90179443359375,7492.73876953125,430.90179443359375C7492.8974609375,431.3903503417969,7493.537109375,431.3903503417969,7493.537109375,431.3903503417969C7493.85888671875,431.552001953125,7493.6962890625,432.20538330078125,7493.6962890625,432.20538330078125C7493.537109375,432.3670349121094,7492.5810546875,432.20538330078125,7492.5810546875,432.20538330078125C7492.10205078125,432.20538330078125,7491.7822265625,432.6935119628906,7491.7822265625,432.6935119628906C7491.46240234375,433.18206787109375,7492.10205078125,433.5085754394531,7492.10205078125,433.5085754394531L7493.21728515625,433.5085754394531C7493.21728515625,433.5085754394531,7493.6962890625,433.346923828125,7493.37646484375,433.83544921875C7493.37646484375,433.83544921875,7492.8974609375,434.3236083984375,7492.4189453125,434.4854431152344C7492.4189453125,434.4854431152344,7491.6201171875,434.6470947265625,7491.3037109375,434.9737854003906C7491.3037109375,434.9737854003906,7490.98388671875,435.13543701171875,7490.98388671875,435.788818359375C7490.98388671875,435.788818359375,7491.14111328125,435.9504699707031,7490.82470703125,436.1153259277344C7490.82470703125,436.1153259277344,7490.345703125,436.7655334472656,7490.82470703125,437.2538757324219C7490.82470703125,437.2538757324219,7490.82470703125,437.58056640625,7492.259765625,437.58056640625C7492.259765625,437.58056640625,7493.37646484375,437.7422180175781,7493.37646484375,438.3955993652344L7493.21728515625,438.8839416503906C7490.34912109375,438.7222900390625,7482.2158203125,439.04559326171875,7482.2158203125,439.04559326171875L7481.89599609375,438.8839416503906C7481.25830078125,438.7222900390625,7480.45947265625,438.7222900390625,7480.45947265625,438.7222900390625L7480.61865234375,438.5604553222656C7480.77587890625,438.0722961425781,7481.4169921875,436.7720947265625,7481.4169921875,436.7720947265625C7481.57470703125,436.4454040527344,7482.2158203125,435.79541015625,7482.2158203125,435.79541015625C7482.53564453125,435.30706787109375,7483.65087890625,435.30706787109375,7483.65087890625,435.30706787109375C7484.44970703125,435.4687194824219,7484.92529296875,435.1454162597656,7484.92529296875,435.1454162597656C7485.08447265625,434.81854248046875,7485.08447265625,434.33038330078125,7485.08447265625,434.33038330078125C7485.24169921875,434.1687316894531,7485.404296875,433.8418273925781,7485.5634765625,433.8418273925781C7485.88330078125,433.68017578125,7486.99853515625,434.0036926269531,7486.99853515625,434.0036926269531L7486.51953125,434.81854248046875C7486.04052734375,435.30706787109375,7485.720703125,436.6070556640625,7485.720703125,436.6070556640625C7485.5634765625,437.4220886230469,7486.19970703125,437.4220886230469,7486.19970703125,437.4220886230469C7486.35888671875,437.4220886230469,7486.19970703125,437.91064453125,7486.19970703125,437.91064453125C7486.35888671875,439.5373229980469,7487.1572265625,438.5604553222656,7487.1572265625,438.5604553222656C7487.63623046875,438.3988037109375,7487.7939453125,437.7453918457031,7487.7939453125,437.7453918457031C7487.953125,437.0956115722656,7488.115234375,436.6070556640625,7488.115234375,436.6070556640625C7488.115234375,436.11871337890625,7487.7939453125,435.9570617675781,7487.7939453125,435.9570617675781C7487.63623046875,435.4687194824219,7487.7939453125,435.14202880859375,7487.7939453125,435.14202880859375C7487.7939453125,434.6536865234375,7488.27294921875,434.3269958496094,7488.27294921875,434.3269958496094C7489.0712890625,433.8386535644531,7491.14111328125,432.3736267089844,7491.14111328125,432.3736267089844C7491.30029296875,432.0469055175781,7491.93994140625,432.0469055175781,7491.93994140625,432.0469055175781L7491.93994140625,431.5585632324219C7491.7822265625,431.23187255859375,7491.7822265625,430.9085693359375,7491.6201171875,430.7435302734375C7491.46240234375,430.0935363769531,7491.779296875,430.25518798828125,7491.779296875,430.25518798828125L7491.9365234375,430.25518798828125C7492.7353515625,430.25518798828125,7492.7353515625,429.9284973144531,7492.7353515625,429.9284973144531C7492.89453125,429.601806640625,7492.578125,429.11346435546875,7492.578125,429.11346435546875C7492.4189453125,428.95159912109375,7491.6201171875,428.6251220703125,7491.6201171875,428.6251220703125C7490.5048828125,428.13677978515625,7489.068359375,428.2984313964844,7489.068359375,428.2984313964844C7487.7939453125,428.13677978515625,7486.837890625,428.6251220703125,7486.837890625,428.6251220703125C7485.720703125,429.11346435546875,7485.08447265625,428.7867736816406,7485.08447265625,428.7867736816406L7483.96728515625,428.7867736816406C7483.48876953125,428.7867736816406,7482.5322265625,428.94842529296875,7482.5322265625,428.94842529296875C7481.25830078125,428.94842529296875,7481.25830078125,428.7867736816406,7481.25830078125,428.7867736816406C7480.45947265625,428.2984313964844,7480.45947265625,428.6251220703125,7480.45947265625,428.6251220703125L7479.50146484375,428.7867736816406C7478.703125,428.7867736816406,7478.865234375,428.94842529296875,7478.865234375,428.94842529296875L7478.865234375,429.43695068359375L7477.74853515625,429.7634582519531L7477.11181640625,429.92510986328125L7476.953125,429.43695068359375C7476.953125,428.94842529296875,7476.154296875,429.43695068359375,7476.154296875,429.43695068359375C7475.51806640625,429.5986022949219,7475.35546875,430.2518005371094,7475.35546875,430.2518005371094C7472.962890625,433.01702880859375,7471.845703125,441.1508483886719,7471.845703125,441.1508483886719C7471.845703125,441.1508483886719,7468.5,441.6391906738281,7468.02099609375,441.96588134765625C7472.98193359375,417.05950927734375,7494.50927734375,398.51177978515625,7520.34375,398.51177978515625C7543.4638671875,398.51177978515625,7563.0810546875,413.4794616699219,7570.57275390625,434.3040466308594ZM7529.431640625,418.19805908203125L7529.91015625,418.5245361328125C7529.91015625,418.5245361328125,7529.7509765625,419.0130920410156,7530.23046875,419.339599609375C7530.23046875,419.339599609375,7530.8662109375,419.501220703125,7531.6669921875,419.501220703125C7531.82421875,419.501220703125,7532.30322265625,419.339599609375,7532.7822265625,419.501220703125C7532.7822265625,419.501220703125,7533.2607421875,419.6628723144531,7533.5810546875,420.4779357910156C7533.5810546875,420.4779357910156,7533.900390625,421.12811279296875,7534.0595703125,421.4548034667969C7534.0595703125,421.4548034667969,7534.21875,421.781494140625,7534.37939453125,422.2696533203125C7534.37939453125,422.2696533203125,7534.2216796875,422.5965576171875,7534.53857421875,422.91986083984375C7534.53857421875,422.91986083984375,7534.53857421875,423.0815124511719,7535.017578125,423.2465515136719C7535.017578125,423.2465515136719,7535.65380859375,423.0846862792969,7535.81640625,424.06158447265625L7535.9736328125,425.1999206542969C7535.9736328125,425.1999206542969,7535.3369140625,425.1999206542969,7535.1748046875,425.6882629394531C7535.1748046875,425.6882629394531,7535.017578125,426.01495361328125,7535.1748046875,426.82659912109375C7535.1748046875,426.82659912109375,7535.1748046875,427.476806640625,7535.333984375,427.8034973144531C7535.333984375,427.8034973144531,7535.81298828125,427.8034973144531,7535.970703125,428.4534912109375C7535.970703125,428.4534912109375,7536.1298828125,428.94183349609375,7536.1298828125,429.2685241699219C7536.1298828125,429.2685241699219,7536.28857421875,429.9187316894531,7536.6083984375,430.4068603515625C7536.6083984375,430.4068603515625,7536.767578125,431.2218933105469,7537.7236328125,431.2218933105469C7537.7236328125,431.2218933105469,7538.044921875,431.2218933105469,7538.3603515625,431.548583984375C7538.3603515625,431.548583984375,7538.51953125,432.0369567871094,7539.16015625,431.87530517578125C7539.6376953125,431.7136535644531,7539.31787109375,431.7136535644531,7539.31787109375,431.7136535644531C7539.31787109375,431.7136535644531,7539.6376953125,431.552001953125,7539.796875,430.5752868652344C7539.796875,430.5752868652344,7539.9560546875,430.0867614746094,7540.275390625,429.5986022949219C7540.4345703125,429.43695068359375,7540.4345703125,428.2984313964844,7540.4345703125,428.1333923339844C7540.4345703125,428.1333923339844,7540.59228515625,427.806884765625,7541.0712890625,427.806884765625C7541.0712890625,427.806884765625,7541.708984375,427.64501953125,7542.1865234375,427.3183288574219C7542.1865234375,427.3183288574219,7542.6650390625,427.15667724609375,7542.986328125,426.0183410644531C7542.986328125,426.0183410644531,7543.14404296875,425.3681640625,7543.78515625,425.3681640625C7544.10546875,425.3681640625,7545.220703125,425.2065124511719,7545.220703125,425.2065124511719C7545.220703125,425.2065124511719,7545.5419921875,424.8800048828125,7545.5419921875,424.3914794921875L7546.01904296875,423.7414855957031C7546.01904296875,423.7414855957031,7546.01904296875,423.0914611816406,7545.69921875,422.7647705078125L7545.37939453125,422.4380798339844C7545.37939453125,422.4380798339844,7545.53857421875,421.9497375488281,7545.8583984375,421.78790283203125L7546.6572265625,420.9730529785156C7546.6572265625,420.9730529785156,7546.81640625,419.99615478515625,7546.3369140625,419.99615478515625L7545.69921875,419.5080261230469L7546.01904296875,419.01947021484375C7546.01904296875,419.01947021484375,7546.17822265625,418.2044372558594,7545.5419921875,418.2044372558594C7545.5419921875,418.2044372558594,7544.7412109375,418.04278564453125,7545.06298828125,417.8779296875C7545.5419921875,417.7162780761719,7545.5419921875,417.0628967285156,7545.5419921875,417.0628967285156L7545.06298828125,415.7627258300781C7545.06298828125,415.7627258300781,7544.7412109375,415.11273193359375,7544.4248046875,415.2743835449219L7543.78857421875,415.2743835449219C7543.78857421875,415.2743835449219,7543.78857421875,414.6243896484375,7543.62939453125,414.4593200683594C7543.62939453125,414.4593200683594,7543.47021484375,413.644287109375,7542.19287109375,413.9709777832031L7541.39404296875,413.9709777832031C7541.39404296875,413.9709777832031,7540.9150390625,413.4826354980469,7539.958984375,413.809326171875C7539.958984375,413.809326171875,7539.6376953125,413.9709777832031,7539.0009765625,413.809326171875C7539.0009765625,413.809326171875,7538.20263671875,413.32098388671875,7537.8857421875,413.32098388671875C7537.8857421875,413.32098388671875,7537.08740234375,413.32098388671875,7536.7705078125,413.4826354980469C7536.7705078125,413.4826354980469,7536.1328125,413.32098388671875,7536.2919921875,413.809326171875C7536.2919921875,413.809326171875,7536.2919921875,414.29766845703125,7536.44921875,414.4593200683594L7535.81298828125,414.6209716796875C7535.81298828125,414.6209716796875,7535.333984375,414.7826232910156,7534.85546875,414.7826232910156C7534.85546875,414.7826232910156,7534.53515625,414.6209716796875,7534.3759765625,414.6209716796875C7534.3759765625,414.6209716796875,7533.8974609375,414.13262939453125,7533.1015625,414.4593200683594C7533.1015625,414.4593200683594,7532.30322265625,414.6209716796875,7532.14404296875,414.9476623535156C7532.0390625,415.0554504394531,7531.986328125,415.2182922363281,7531.986328125,415.43603515625C7531.986328125,415.43603515625,7531.986328125,415.5976867675781,7531.5078125,415.7627258300781C7531.5078125,415.7627258300781,7530.86962890625,415.60107421875,7530.5498046875,415.7627258300781C7530.5498046875,415.7627258300781,7530.23046875,415.60107421875,7530.392578125,416.08941650390625C7530.392578125,416.08941650390625,7530.5498046875,416.2510681152344,7530.7119140625,416.4161071777344L7530.86962890625,416.5777587890625C7530.86962890625,416.5777587890625,7531.02880859375,416.9044494628906,7530.7119140625,417.06610107421875L7529.5966796875,417.2277526855469C7529.5966796875,417.2277526855469,7529.1181640625,417.389404296875,7528.79833984375,417.554443359375C7528.79833984375,417.554443359375,7528.3193359375,417.554443359375,7528.4765625,418.04278564453125C7528.79833984375,417.554443359375,7528.79833984375,418.04278564453125,7529.4345703125,418.2044372558594L7529.431640625,418.19805908203125ZM7522.095703125,420.6363830566406L7525.60546875,420.4747314453125C7525.60546875,420.4747314453125,7526.40380859375,419.98638916015625,7525.9248046875,419.8247375488281L7525.44775390625,419.6628723144531C7525.44775390625,419.6628723144531,7525.1259765625,419.3363952636719,7525.44775390625,419.17474365234375L7526.56298828125,419.0130920410156L7527.0419921875,418.6861877441406L7527.0419921875,418.03619384765625L7527.99951171875,417.5478515625L7528.1572265625,416.5711669921875C7528.1572265625,416.5711669921875,7528.9560546875,415.92095947265625,7529.59228515625,415.594482421875C7529.59228515625,415.594482421875,7531.345703125,414.6177978515625,7531.6669921875,414.4561462402344C7531.6669921875,414.4561462402344,7532.30322265625,413.64111328125,7531.6669921875,413.64111328125L7530.5498046875,413.96759033203125C7530.5498046875,413.96759033203125,7530.0712890625,413.8059387207031,7530.0712890625,413.4794616699219C7530.0712890625,413.4794616699219,7529.2724609375,412.99090576171875,7528.6357421875,413.3175964355469C7528.6357421875,413.3175964355469,7527.361328125,413.4794616699219,7527.201171875,413.4794616699219C7527.201171875,413.4794616699219,7525.7646484375,413.64111328125,7525.60546875,413.8059387207031C7525.60546875,413.8059387207031,7525.1259765625,413.96759033203125,7524.96875,414.29449462890625L7524.8095703125,414.4561462402344C7524.8095703125,414.4561462402344,7523.6943359375,414.4561462402344,7523.2158203125,414.6177978515625C7523.2158203125,414.6177978515625,7522.57763671875,414.4561462402344,7522.8955078125,414.94427490234375C7522.8955078125,414.94427490234375,7523.2158203125,415.4328308105469,7523.6943359375,415.4328308105469L7524.96875,415.4328308105469L7525.28857421875,415.594482421875C7525.28857421875,415.594482421875,7525.44775390625,415.7561340332031,7525.28857421875,415.92095947265625C7525.28857421875,415.92095947265625,7524.490234375,415.7593078613281,7524.17333984375,415.92095947265625C7524.17333984375,415.92095947265625,7523.6943359375,416.4095153808594,7523.2158203125,416.08282470703125C7523.2158203125,416.08282470703125,7522.4169921875,415.4328308105469,7521.94140625,415.594482421875C7521.94140625,415.594482421875,7521.46240234375,415.594482421875,7521.142578125,415.92095947265625C7521.142578125,415.92095947265625,7520.66357421875,416.5711669921875,7520.9833984375,416.8978576660156L7521.7822265625,417.05950927734375C7521.7822265625,417.05950927734375,7521.623046875,417.3861999511719,7521.623046875,417.5478515625C7521.623046875,417.5478515625,7521.7822265625,417.7095031738281,7522.42333984375,417.7095031738281L7523.53857421875,417.7095031738281C7523.53857421875,417.7095031738281,7524.3369140625,417.5478515625,7524.3369140625,418.03619384765625C7524.3369140625,418.03619384765625,7524.3369140625,418.8512268066406,7523.8583984375,418.8512268066406L7522.583984375,419.339599609375L7522.10498046875,419.501220703125L7521.6259765625,419.501220703125C7521.46875,419.339599609375,7520.98974609375,420.4779357910156,7522.10498046875,420.6397705078125L7522.095703125,420.6363830566406ZM7509.6572265625,423.2399597167969L7509.17822265625,423.7283020019531C7508.8583984375,423.88995361328125,7509.0205078125,424.5433349609375,7509.0205078125,424.5433349609375C7508.86181640625,424.7049865722656,7508.86181640625,425.03167724609375,7508.5419921875,425.1933288574219C7508.3828125,425.35498046875,7509.0205078125,425.6816711425781,7509.0205078125,425.6816711425781L7510.294921875,425.8435363769531C7510.61474609375,425.6816711425781,7510.61474609375,425.35498046875,7510.61474609375,425.35498046875C7510.7724609375,425.1933288574219,7511.09375,425.1933288574219,7511.09375,425.1933288574219L7511.57275390625,425.6816711425781C7511.73046875,425.6816711425781,7512.208984375,425.8435363769531,7512.208984375,425.8435363769531L7512.208984375,426.1700134277344C7511.73046875,426.1700134277344,7511.73046875,426.6585693359375,7511.73046875,426.6585693359375C7511.73046875,426.6585693359375,7512.68798828125,426.98504638671875,7513.0048828125,427.1466979980469C7513.4833984375,427.308349609375,7514.44140625,427.1466979980469,7514.44140625,427.1466979980469C7515.240234375,427.308349609375,7515.240234375,426.6585693359375,7515.240234375,426.6585693359375C7515.5595703125,426.1700134277344,7516.03857421875,426.4967041015625,7516.03857421875,426.4967041015625L7516.83740234375,426.6585693359375C7517.4755859375,426.8202209472656,7518.111328125,426.1700134277344,7518.111328125,426.1700134277344C7518.43310546875,425.6816711425781,7517.9541015625,425.35498046875,7517.9541015625,425.35498046875C7517.794921875,425.1933288574219,7517.6328125,424.86663818359375,7517.4755859375,424.7049865722656C7517.4755859375,424.2166442871094,7517.31640625,423.88995361328125,7516.99609375,423.5664367675781C7516.517578125,423.07830810546875,7515.8798828125,423.5664367675781,7515.8798828125,423.5664367675781C7515.5595703125,423.5664367675781,7515.7216796875,424.5433349609375,7515.7216796875,424.5433349609375L7515.2431640625,424.5433349609375C7514.92333984375,424.5433349609375,7514.76416015625,423.8933410644531,7514.76416015625,423.8933410644531C7514.4443359375,423.731689453125,7513.806640625,423.8933410644531,7513.806640625,423.8933410644531C7513.32763671875,424.05499267578125,7512.8505859375,423.731689453125,7512.8505859375,423.731689453125L7512.21240234375,423.2431335449219C7511.7333984375,423.0815124511719,7510.93798828125,423.40478515625,7510.93798828125,423.40478515625L7509.66357421875,423.2431335449219L7509.6572265625,423.2399597167969ZM7559.728515625,429.91192626953125C7559.5712890625,429.91192626953125,7559.2509765625,430.4004821777344,7559.2509765625,430.4004821777344L7559.5712890625,431.7004699707031C7559.5712890625,431.7004699707031,7559.412109375,431.7004699707031,7559.728515625,431.86212158203125C7560.0498046875,432.1888122558594,7560.3662109375,432.3504638671875,7560.3662109375,432.3504638671875L7560.3662109375,433.489013671875C7560.046875,433.81549072265625,7560.3662109375,434.4656982421875,7560.3662109375,434.4656982421875L7561.32421875,434.4656982421875C7561.64404296875,434.3040466308594,7561.9609375,433.9771423339844,7561.9609375,433.9771423339844L7562.439453125,433.81549072265625L7562.1201171875,433.489013671875C7562.1201171875,433.489013671875,7561.9609375,433.489013671875,7561.9609375,432.83880615234375C7561.8017578125,432.1888122558594,7561.32421875,431.86212158203125,7561.32421875,431.86212158203125C7561.0029296875,431.373779296875,7560.845703125,431.373779296875,7560.845703125,430.88543701171875C7560.845703125,430.0704040527344,7560.20751953125,429.90875244140625,7560.20751953125,429.90875244140625L7559.728515625,429.90875244140625L7559.728515625,429.91192626953125ZM7557.814453125,432.5155029296875C7557.814453125,432.5155029296875,7557.6552734375,432.6771545410156,7557.6552734375,433.1654968261719C7557.814453125,433.4921875,7558.13427734375,433.98052978515625,7558.13427734375,433.98052978515625C7558.61328125,434.1421813964844,7559.5712890625,433.98052978515625,7559.5712890625,433.98052978515625C7560.36962890625,433.4921875,7559.728515625,433.1654968261719,7559.728515625,433.1654968261719C7559.8876953125,432.6771545410156,7559.091796875,432.3504638671875,7559.091796875,432.3504638671875C7558.61328125,432.1888122558594,7558.13427734375,432.1888122558594,7558.13427734375,432.1888122558594L7557.814453125,432.5155029296875ZM7517.94921875,457.0820007324219C7517.94921875,457.0820007324219,7522.57421875,458.54705810546875,7523.05322265625,458.7087097167969C7523.05322265625,458.7087097167969,7531.9833984375,461.9622497558594,7537.880859375,462.2889709472656C7537.880859375,462.2889709472656,7549.68310546875,463.5891418457031,7559.091796875,460.50042724609375C7559.091796875,460.50042724609375,7559.2509765625,461.3154602050781,7559.5712890625,461.8006286621094C7559.5712890625,461.8006286621094,7560.0498046875,461.9622497558594,7560.0498046875,462.45062255859375L7560.0498046875,463.2656555175781L7560.36962890625,463.7539978027344L7560.52734375,464.2423400878906C7560.52734375,464.2423400878906,7560.8486328125,464.56903076171875,7561.005859375,465.057373046875C7561.005859375,465.057373046875,7561.1650390625,465.8724060058594,7560.8486328125,466.1959228515625C7560.8486328125,466.1959228515625,7560.36962890625,465.8690185546875,7560.36962890625,466.6840515136719C7560.36962890625,466.6840515136719,7560.0498046875,467.8226013183594,7560.0498046875,468.47259521484375C7560.0498046875,468.47259521484375,7552.07763671875,470.7494812011719,7541.2333984375,469.7725830078125L7540.4345703125,469.6109313964844C7540.4345703125,469.6109313964844,7539.31787109375,468.7958984375,7538.51953125,469.122802734375C7538.51953125,469.122802734375,7538.0400390625,468.9609375,7538.3603515625,468.6342468261719C7538.51953125,468.1460876464844,7538.51953125,468.3077392578125,7538.51953125,468.3077392578125C7538.51953125,468.3077392578125,7538.67822265625,466.842529296875,7537.720703125,466.51922607421875L7536.12646484375,466.0308837890625L7535.1689453125,465.8690185546875C7535.1689453125,465.8690185546875,7534.689453125,465.7073669433594,7534.3701171875,465.54254150390625C7534.3701171875,465.54254150390625,7534.3701171875,465.3808898925781,7533.89111328125,465.0539855957031C7533.89111328125,465.0539855957031,7533.09228515625,464.5658264160156,7532.61669921875,464.5658264160156C7532.61669921875,464.5658264160156,7532.1376953125,464.5658264160156,7531.66015625,464.72747802734375C7531.66015625,464.72747802734375,7531.181640625,464.8891296386719,7530.8603515625,464.8891296386719C7530.8603515625,464.8891296386719,7530.70263671875,464.72747802734375,7530.54052734375,464.4007873535156C7530.54052734375,464.4007873535156,7530.3828125,463.58575439453125,7529.5830078125,463.9124450683594C7529.5830078125,463.9124450683594,7528.1474609375,463.9124450683594,7527.6689453125,464.23895263671875C7527.6689453125,464.23895263671875,7526.8701171875,464.72747802734375,7526.5537109375,465.3774719238281C7526.5537109375,465.3774719238281,7526.7109375,465.8658142089844,7526.39453125,465.8658142089844C7526.39453125,465.8658142089844,7525.91552734375,465.70416259765625,7525.595703125,465.70416259765625L7524.796875,465.8658142089844L7524.1591796875,465.3774719238281L7523.8388671875,464.56243896484375C7523.8388671875,464.56243896484375,7523.998046875,463.7474060058594,7524.318359375,463.26226806640625C7524.318359375,463.26226806640625,7524.4755859375,462.2855529785156,7523.998046875,462.2855529785156L7522.5615234375,462.2855529785156C7522.5615234375,462.2855529785156,7521.7626953125,462.6122741699219,7521.7626953125,462.1239013671875C7521.7626953125,462.1239013671875,7521.2841796875,461.63555908203125,7521.7626953125,460.9855651855469C7521.7626953125,460.9855651855469,7522.3994140625,460.1705322265625,7522.2421875,459.6855773925781C7522.2421875,459.6855773925781,7521.921875,458.3854064941406,7520.806640625,458.87054443359375C7520.806640625,458.87054443359375,7520.1689453125,458.7087097167969,7520.1689453125,459.35870361328125L7520.1689453125,460.33538818359375L7519.68994140625,460.4972229003906C7519.68994140625,460.4972229003906,7519.5322265625,460.65887451171875,7519.2109375,460.65887451171875C7519.2109375,460.65887451171875,7518.412109375,460.1705322265625,7518.2548828125,459.8438415527344L7517.77587890625,458.7052917480469L7517.93359375,457.07861328125L7517.94921875,457.0820007324219ZM7527.3583984375,449.5981750488281C7527.3583984375,449.5981750488281,7539.9560546875,451.7132263183594,7549.5224609375,449.1098327636719C7549.5224609375,449.1098327636719,7549.6796875,450.57489013671875,7549.6796875,451.55157470703125C7549.6796875,451.55157470703125,7549.5224609375,453.50494384765625,7549.8388671875,454.3168029785156C7549.8388671875,454.3168029785156,7550.6376953125,456.5934753417969,7551.59228515625,456.7586975097656C7551.59228515625,456.7586975097656,7541.06787109375,459.52374267578125,7526.240234375,456.92034912109375C7526.240234375,456.92034912109375,7519.86181640625,454.966796875,7518.904296875,454.8051452636719C7518.904296875,454.8051452636719,7519.06298828125,454.1551513671875,7519.86181640625,454.1551513671875C7519.86181640625,454.1551513671875,7520.498046875,454.1551513671875,7520.97705078125,453.9934997558594C7520.97705078125,453.9934997558594,7521.296875,453.50494384765625,7521.775390625,453.50494384765625C7521.775390625,453.50494384765625,7522.57421875,453.3432922363281,7523.0498046875,453.9934997558594C7523.0498046875,453.9934997558594,7523.8486328125,455.1318359375,7524.1669921875,455.62017822265625C7524.1669921875,455.62017822265625,7524.6455078125,456.4352111816406,7525.44140625,456.2701721191406C7525.44140625,456.2701721191406,7525.919921875,455.45513916015625,7525.5986328125,454.8051452636719L7525.1201171875,453.1784362792969L7524.7998046875,452.04010009765625C7524.7998046875,452.04010009765625,7526.873046875,449.9248962402344,7527.35205078125,449.5981750488281L7527.3583984375,449.5981750488281ZM7573.603515625,448.6214904785156C7572.16845703125,449.75982666015625,7569.9365234375,450.57489013671875,7569.9365234375,450.57489013671875C7570.095703125,450.4132385253906,7570.73486328125,449.75982666015625,7570.73486328125,449.75982666015625C7570.89404296875,448.9447937011719,7570.4150390625,445.5295715332031,7570.4150390625,445.5295715332031C7570.255859375,445.0412292480469,7569.9365234375,444.5528869628906,7569.9365234375,444.5528869628906C7569.6162109375,444.0645446777344,7569.77734375,443.90289306640625,7569.77734375,443.90289306640625C7570.0986328125,443.7412414550781,7570.0986328125,443.5762023925781,7570.0986328125,443.5762023925781C7570.255859375,443.24951171875,7570.0986328125,442.92620849609375,7570.0986328125,442.92620849609375C7570.0986328125,442.92620849609375,7572.4912109375,441.78765869140625,7572.650390625,441.4609680175781C7573.1279296875,443.90289306640625,7573.287109375,446.0179138183594,7573.6064453125,448.61810302734375L7573.603515625,448.6214904785156ZM7572.48828125,465.54254150390625C7571.689453125,466.0308837890625,7568.978515625,466.6808776855469,7568.978515625,466.6808776855469C7569.45703125,465.8658142089844,7569.29833984375,464.72747802734375,7569.29833984375,464.72747802734375C7569.29833984375,464.72747802734375,7569.45703125,465.2158203125,7569.140625,464.23895263671875C7568.9814453125,463.26226806640625,7568.9814453125,460.9855651855469,7568.9814453125,460.9855651855469C7569.46044921875,459.84722900390625,7570.8974609375,457.4053039550781,7570.8974609375,457.4053039550781C7570.8974609375,457.4053039550781,7573.2900390625,456.59027099609375,7573.765625,456.2669677734375C7573.6064453125,459.35870361328125,7573.1279296875,462.45062255859375,7572.4912109375,465.53912353515625C7571.6923828125,468.63104248046875,7573.1279296875,462.44720458984375,7572.4912109375,465.53912353515625L7572.48828125,465.54254150390625ZM7568.978515625,451.38671875C7568.1796875,451.8748779296875,7567.86328125,451.38671875,7567.86328125,451.38671875C7567.54345703125,450.8981628417969,7567.38427734375,449.5981750488281,7567.38427734375,449.5981750488281C7567.38427734375,448.6214904785156,7566.9072265625,448.1329650878906,7566.9072265625,448.1329650878906C7566.748046875,447.6448059082031,7566.42822265625,447.3179016113281,7566.1064453125,446.99462890625C7565.94921875,446.5062561035156,7565.787109375,444.87957763671875,7565.787109375,444.87957763671875L7565.9443359375,444.5528869628906C7565.9443359375,444.5528869628906,7566.265625,444.3912353515625,7566.265625,445.0412292480469C7566.265625,445.0412292480469,7566.265625,445.85626220703125,7566.5859375,446.1795654296875C7566.5859375,446.1795654296875,7566.9072265625,446.3412170410156,7567.064453125,446.99462890625C7567.064453125,446.99462890625,7567.38427734375,447.483154296875,7567.54345703125,448.1329650878906C7567.54345703125,448.1329650878906,7567.701171875,448.6214904785156,7567.86328125,449.5981750488281C7567.86328125,449.5981750488281,7567.7060546875,450.4132385253906,7568.1845703125,450.7365417480469L7568.9814453125,450.8981628417969L7568.9814453125,451.38671875L7568.978515625,451.38671875ZM7562.123046875,438.5340881347656C7562.123046875,438.5340881347656,7561.9638671875,438.69573974609375,7561.9638671875,439.1842956542969L7562.123046875,439.51080322265625L7562.44287109375,439.02264404296875L7562.28369140625,438.2076110839844L7562.1259765625,438.5340881347656L7562.123046875,438.5340881347656ZM7494.98681640625,438.86077880859375L7495.787109375,438.04595947265625C7495.787109375,438.04595947265625,7496.58544921875,437.395751953125,7496.10693359375,437.395751953125C7495.6279296875,437.2341003417969,7495.30810546875,437.395751953125,7495.46875,436.90740966796875C7495.46875,436.90740966796875,7495.6279296875,436.4190673828125,7495.94775390625,436.7457580566406C7495.94775390625,436.7457580566406,7496.267578125,437.2341003417969,7496.9052734375,437.2341003417969C7496.9052734375,437.2341003417969,7497.7041015625,437.07244873046875,7498.0205078125,436.4190673828125L7498.1796875,435.2807312011719L7498.49951171875,435.4423828125C7498.49951171875,435.4423828125,7498.341796875,435.6040344238281,7498.65869140625,435.93072509765625C7498.65869140625,435.93072509765625,7499.1376953125,436.0923767089844,7499.61474609375,436.0923767089844C7499.61474609375,436.0923767089844,7500.2529296875,435.93072509765625,7501.05126953125,436.2540283203125C7501.05126953125,436.2540283203125,7501.5302734375,436.2540283203125,7501.85009765625,436.74237060546875C7501.85009765625,436.74237060546875,7501.85009765625,436.9040222167969,7502.3291015625,437.0690612792969L7503.1279296875,437.2309265136719C7503.1279296875,437.2309265136719,7503.28515625,437.2309265136719,7503.28515625,437.71905517578125C7503.28515625,437.71905517578125,7503.28515625,438.2076110839844,7503.4443359375,438.8573913574219C7503.4443359375,438.8573913574219,7503.92333984375,439.6724548339844,7504.08251953125,439.9959411621094C7504.23974609375,440.3226318359375,7504.40185546875,440.81097412109375,7504.40185546875,440.81097412109375C7504.40185546875,440.81097412109375,7501.0546875,439.345947265625,7494.9931640625,438.8573913574219L7494.98681640625,438.86077880859375ZM7467.08251953125,456.1053161621094C7467.08251953125,456.1053161621094,7469.47705078125,454.966796875,7470.27099609375,454.64007568359375L7470.27099609375,453.175048828125L7470.11328125,453.0133972167969C7470.11328125,453.0133972167969,7469.7919921875,452.5250549316406,7469.9541015625,452.1983642578125L7470.27392578125,451.2216796875C7470.27392578125,451.2216796875,7470.43310546875,449.9214782714844,7470.1162109375,449.4331359863281L7470.1162109375,449.1064453125C7470.1162109375,448.77996826171875,7470.27392578125,448.61810302734375,7470.27392578125,448.2914123535156L7470.43310546875,447.153076171875L7470.11328125,446.9914245605469C7470.11328125,446.9914245605469,7467.40234375,448.4564514160156,7466.9248046875,448.4564514160156C7466.765625,449.9214782714844,7466.765625,451.5483703613281,7466.765625,453.0133972167969C7466.9248046875,453.9900817871094,7466.9248046875,455.1286315917969,7467.08544921875,456.1053161621094L7467.08251953125,456.1053161621094ZM7479.0419921875,450.7365417480469C7479.0419921875,450.0865173339844,7478.72216796875,450.0865173339844,7478.72216796875,450.0865173339844C7477.92333984375,449.9248962402344,7477.92333984375,449.5981750488281,7477.92333984375,449.5981750488281C7477.4443359375,449.1098327636719,7477.92333984375,448.78314208984375,7477.92333984375,448.78314208984375C7478.0810546875,448.2947998046875,7477.92333984375,448.2947998046875,7477.76611328125,447.9681091308594C7477.60693359375,447.64141845703125,7477.1279296875,447.80645751953125,7477.1279296875,447.80645751953125L7477.287109375,447.3179016113281C7477.287109375,446.9914245605469,7477.60693359375,446.9914245605469,7477.60693359375,446.9914245605469L7478.564453125,447.3179016113281L7478.72216796875,447.4797668457031L7478.88134765625,448.2947998046875L7479.201171875,448.6214904785156C7479.35986328125,448.6214904785156,7479.35986328125,449.271484375,7479.35986328125,449.271484375C7479.35986328125,449.75982666015625,7480.15869140625,449.271484375,7480.15869140625,449.271484375C7480.95751953125,448.78314208984375,7480.478515625,448.4564514160156,7480.478515625,448.1329650878906C7480.478515625,447.483154296875,7479.99951171875,446.99462890625,7479.99951171875,446.99462890625C7479.6796875,446.8329772949219,7479.99951171875,446.5062561035156,7479.99951171875,446.5062561035156C7480.3193359375,446.0179138183594,7480.15869140625,445.69122314453125,7480.15869140625,445.69122314453125C7480.15869140625,445.3645324707031,7480.31640625,445.202880859375,7480.478515625,445.202880859375C7480.95751953125,445.0412292480469,7481.27734375,444.71453857421875,7481.27734375,444.71453857421875L7481.755859375,444.2261962890625C7482.23486328125,444.0645446777344,7482.5546875,444.0645446777344,7482.5546875,444.0645446777344C7482.3955078125,444.87957763671875,7482.87451171875,444.87957763671875,7482.87451171875,444.87957763671875C7483.5126953125,445.2062683105469,7483.83251953125,444.7179260253906,7483.83251953125,444.7179260253906C7484.15185546875,444.3912353515625,7483.9912109375,443.7412414550781,7483.9912109375,443.7412414550781L7484.31103515625,443.7412414550781C7495.1552734375,441.29931640625,7505.99609375,443.57958984375,7505.8369140625,443.7412414550781C7505.6796875,443.90289306640625,7505.8369140625,444.5562744140625,7505.8369140625,444.87957763671875C7505.8369140625,445.202880859375,7505.517578125,445.5295715332031,7505.517578125,445.5295715332031C7505.03857421875,446.0179138183594,7505.517578125,446.6681213378906,7505.517578125,446.6681213378906C7505.8369140625,447.483154296875,7505.35986328125,447.9681091308594,7505.35986328125,447.9681091308594C7504.880859375,448.2947998046875,7505.03857421875,449.4331359863281,7505.03857421875,449.4331359863281C7505.19775390625,449.9214782714844,7505.517578125,449.9214782714844,7505.517578125,449.9214782714844L7505.99609375,451.2216796875C7490.05126953125,449.1064453125,7479.20751953125,452.3600158691406,7479.20751953125,452.3600158691406L7479.0498046875,450.73333740234375L7479.0419921875,450.7365417480469ZM7483.02734375,443.2527160644531C7483.02734375,443.2527160644531,7482.228515625,443.2527160644531,7481.91015625,444.0677490234375L7482.54833984375,444.0677490234375L7482.70751953125,444.2294006347656L7483.1845703125,444.0677490234375L7483.34375,444.3946228027344L7483.82275390625,444.2327880859375C7483.82275390625,444.2327880859375,7484.4609375,444.0711364746094,7484.78076171875,443.4177551269531C7484.78076171875,443.4177551269531,7485.25927734375,442.76776123046875,7484.93798828125,442.2794189453125C7484.93798828125,442.2794189453125,7484.6181640625,441.7910461425781,7485.09716796875,441.46435546875L7484.93798828125,440.8143615722656L7484.4609375,440.48748779296875L7484.6181640625,440.8143615722656L7483.98193359375,440.6527099609375L7483.98193359375,440.8143615722656L7483.66064453125,440.97601318359375L7483.5029296875,441.3025207519531C7483.5029296875,441.3025207519531,7483.82275390625,441.46435546875,7483.66064453125,441.95269775390625C7483.66064453125,441.95269775390625,7483.8193359375,442.2794189453125,7483.5029296875,442.4410705566406C7483.5029296875,442.4410705566406,7482.86474609375,442.4410705566406,7483.02392578125,442.9294128417969L7483.02392578125,443.256103515625L7483.02734375,443.2527160644531ZM7472.98193359375,460.33538818359375L7473.4609375,460.33538818359375C7473.939453125,460.4972229003906,7473.3017578125,461.4739074707031,7473.3017578125,461.4739074707031C7473.3017578125,461.9622497558594,7474.10009765625,461.312255859375,7474.10009765625,461.312255859375C7474.421875,460.9855651855469,7474.73828125,461.1504211425781,7474.73828125,461.1504211425781C7475.21728515625,460.98876953125,7475.537109375,461.312255859375,7475.537109375,461.312255859375C7477.2900390625,461.1504211425781,7476.49462890625,460.33538818359375,7476.49462890625,460.33538818359375L7476.49462890625,459.1970520019531C7494.353515625,453.0133972167969,7508.544921875,454.966796875,7508.544921875,454.966796875C7509.66015625,455.1286315917969,7508.86474609375,455.6167907714844,7508.86474609375,455.6167907714844C7508.70703125,455.7784423828125,7508.70703125,456.43182373046875,7508.70703125,456.43182373046875C7508.54833984375,456.92034912109375,7509.18603515625,457.40850830078125,7509.505859375,457.5703430175781C7510.142578125,457.8970642089844,7510.3046875,458.0587158203125,7510.3046875,458.0587158203125C7511.103515625,459.1970520019531,7511.419921875,459.1970520019531,7511.419921875,459.1970520019531C7512.53515625,459.52374267578125,7512.21875,458.7087097167969,7512.21875,458.7087097167969C7512.21875,458.0587158203125,7511.103515625,456.92034912109375,7511.103515625,456.92034912109375C7510.9443359375,456.43182373046875,7510.62451171875,455.94366455078125,7510.3046875,455.45513916015625L7510.62451171875,455.2934875488281L7511.103515625,455.62017822265625C7511.90234375,457.40850830078125,7513.8125,458.71209716796875,7513.8125,459.200439453125C7513.9716796875,460.0154724121094,7513.6552734375,460.1771240234375,7513.6552734375,460.1771240234375C7513.6552734375,461.15380859375,7514.4541015625,461.3154602050781,7514.4541015625,461.3154602050781C7515.728515625,462.61566162109375,7517.642578125,462.942138671875,7517.642578125,462.942138671875C7518.44091796875,463.26904296875,7518.75927734375,463.10400390625,7518.75927734375,463.10400390625C7519.0791015625,462.942138671875,7519.5576171875,463.2656555175781,7519.5576171875,463.2656555175781C7520.6728515625,464.7306823730469,7520.9931640625,464.0806884765625,7520.9931640625,464.0806884765625C7521.314453125,463.9190368652344,7521.630859375,464.2423400878906,7521.630859375,464.2423400878906L7522.10986328125,465.057373046875C7504.88720703125,459.3620910644531,7480.17138671875,466.6840515136719,7480.17138671875,466.6840515136719C7480.650390625,465.7073669433594,7480.17138671875,465.057373046875,7480.17138671875,465.057373046875C7480.01220703125,464.2423400878906,7479.6923828125,464.2423400878906,7479.6923828125,464.2423400878906C7479.53515625,463.7539978027344,7480.01220703125,463.7539978027344,7480.01220703125,463.7539978027344C7480.33349609375,463.59234619140625,7480.17138671875,462.93896484375,7480.17138671875,462.93896484375C7479.8515625,462.7773132324219,7478.89697265625,462.93896484375,7478.89697265625,462.93896484375C7478.0986328125,462.93896484375,7478.25927734375,463.42730712890625,7478.25927734375,463.42730712890625C7478.1015625,464.2423400878906,7477.62255859375,464.5658264160156,7477.62255859375,464.5658264160156C7477.302734375,465.0539855957031,7477.14404296875,465.3808898925781,7476.98486328125,466.0308837890625C7476.8271484375,466.8459167480469,7478.1015625,467.49591064453125,7478.1015625,467.49591064453125C7477.62255859375,467.49591064453125,7470.12939453125,471.2378234863281,7470.12939453125,471.2378234863281C7469.17138671875,468.3109436035156,7468.6923828125,466.6808776855469,7468.05615234375,463.42730712890625C7468.6923828125,462.7773132324219,7472.99755859375,460.33538818359375,7472.99755859375,460.33538818359375L7472.98193359375,460.33538818359375ZM7478.08544921875,467.9808654785156C7478.08544921875,467.9808654785156,7478.08544921875,468.4693908691406,7478.72216796875,469.4460754394531C7478.72216796875,469.4460754394531,7479.201171875,469.9344482421875,7479.201171875,470.42279052734375C7479.201171875,470.42279052734375,7479.35986328125,470.7494812011719,7479.6796875,470.9111328125L7480.63623046875,471.0727844238281C7480.63623046875,471.0727844238281,7481.11474609375,470.9111328125,7481.11474609375,470.74609375L7481.11474609375,470.5844421386719L7480.31640625,469.4460754394531L7479.83740234375,468.63104248046875L7478.88134765625,467.8160095214844L7478.72216796875,467.48931884765625L7478.88134765625,468.7895202636719L7478.0810546875,467.9744567871094L7478.08544921875,467.9808654785156ZM7479.0419921875,466.6808776855469C7479.0419921875,466.6808776855469,7478.88427734375,467.8192138671875,7479.36181640625,468.1460876464844C7479.36181640625,468.1460876464844,7479.84033203125,468.3077392578125,7480.162109375,468.1460876464844L7480.63916015625,467.6575622558594C7480.63916015625,467.6575622558594,7480.48193359375,466.842529296875,7480.0029296875,466.51922607421875C7479.68310546875,466.3575744628906,7479.2041015625,466.3575744628906,7479.2041015625,466.3575744628906L7479.36181640625,466.8459167480469L7478.88427734375,466.3575744628906L7479.0419921875,466.6840515136719L7479.0419921875,466.6808776855469Z" fill-rule="evenodd" clip-rule="evenodd" style="fill: rgb(255, 255, 255);"/></g></g></svg>