<svg width="158" xmlns="http://www.w3.org/2000/svg" height="101" id="screenshot-ab7713a3-05fa-809c-8007-888c1972e0fb" viewBox="7246.766 403.512 158 101" xmlns:xlink="http://www.w3.org/1999/xlink" fill="none" version="1.1"><g id="shape-ab7713a3-05fa-809c-8007-888c1972e0fb"><g class="fills" id="fills-ab7713a3-05fa-809c-8007-888c1972e0fb"><path d="M7382.5224609375,450.431396484375L7361.31982421875,450.431396484375L7361.31982421875,440.1044006347656C7361.31982421875,434.1571044921875,7366.1875,429.42242431640625,7371.9267578125,429.42242431640625C7377.666015625,429.42242431640625,7382.533203125,434.1471862792969,7382.533203125,440.1044006347656L7382.533203125,450.431396484375L7382.5224609375,450.431396484375L7382.5224609375,450.431396484375M7382.5224609375,473.7085876464844L7354.1923828125,473.7085876464844L7354.1923828125,492.9617919921875L7329.6767578125,492.9617919921875L7329.6767578125,473.7085876464844L7301.16943359375,473.7085876464844L7301.16943359375,440.0946044921875C7301.16943359375,434.1471862792969,7306.03466796875,429.4128112792969,7311.77490234375,429.4128112792969C7317.5126953125,429.4128112792969,7322.38037109375,434.13726806640625,7322.38037109375,440.0946044921875L7322.38037109375,457.2469482421875L7329.51171875,457.2469482421875L7329.51171875,445.8646240234375C7329.51171875,431.158447265625,7341.50732421875,419.0858459472656,7356.1015625,419.0858459472656C7361.3115234375,419.0858459472656,7366.35400390625,420.6639709472656,7370.5283203125,423.28765869140625C7361.3115234375,423.63287353515625,7354.01611328125,431.33599853515625,7354.01611328125,440.4398193359375L7354.01611328125,457.06939697265625L7382.34765625,457.2469482421875L7382.5224609375,473.6989440917969L7382.5224609375,473.7085876464844L7382.5224609375,473.7085876464844M7293.353515625,440.627197265625L7293.353515625,473.7085876464844L7268.8408203125,473.7085876464844L7268.8408203125,446.0521240234375C7268.8408203125,431.34576416015625,7280.83740234375,419.273193359375,7295.427734375,419.273193359375C7300.6376953125,419.273193359375,7305.6826171875,420.851318359375,7309.85595703125,423.4750061035156C7300.81640625,423.8202209472656,7293.34375,431.3558349609375,7293.34375,440.627197265625L7293.353515625,440.627197265625L7293.353515625,440.627197265625M7325.68212890625,403.51177978515625C7282.22802734375,403.51177978515625,7246.76513671875,425.9211120605469,7246.76513671875,453.92291259765625C7246.76513671875,481.9251708984375,7282.22802734375,504.5117492675781,7325.68212890625,504.5117492675781C7369.13720703125,504.5117492675781,7404.765625,481.9251708984375,7404.765625,453.92291259765625C7404.58935546875,425.9113464355469,7369.13720703125,403.51177978515625,7325.68212890625,403.51177978515625L7325.68212890625,403.51177978515625" style="fill: rgb(255, 255, 255);"/></g></g></svg>