<svg width="1396" xmlns="http://www.w3.org/2000/svg" height="1395" id="screenshot-30d8a795-6231-809b-8007-8786453cd019" viewBox="0 0 1396 1395" xmlns:xlink="http://www.w3.org/1999/xlink" fill="none" version="1.1"><g id="shape-30d8a795-6231-809b-8007-8786453cd019"><g class="frame-container-wrapper"><g class="frame-container-blur"><g class="frame-container-shadows"><g fill="none"><g class="fills" id="fills-30d8a795-6231-809b-8007-8786453cd019"><rect rx="0" ry="0" x="0" y="0" width="1396" height="1395" transform="matrix(1.000000, 0.000000, 0.000000, 1.000000, 0.000000, 0.000000)" class="frame-background"/></g><g class="frame-children"><g id="shape-30d8a795-6231-809b-8007-8786453cd021" width="1144" height="1191" rx="0" ry="0" style="fill: rgb(0, 0, 0);"><g id="shape-30d8a795-6231-809b-8007-8786453cd022" style="display: none;"><g class="fills" id="fills-30d8a795-6231-809b-8007-8786453cd022"><rect width="1143.999777427045" height="1191" x="252.00022257295495" transform="matrix(1.000000, 0.000000, 0.000000, 1.000000, 0.000000, 0.000000)" style="fill: none;" ry="0" fill="none" rx="0" y="0"/></g></g><g id="shape-30d8a795-6231-809b-8007-8786453cd023"><defs><linearGradient x1="-251.144" y1="1395" x2="1143.81" y2="-.165" id="render-4-a" gradientUnits="userSpaceOnUse" gradientTransform="matrix(1.000000, 0.000000, 0.000000, 1.000000, 252.000223, 0.000000)"><stop stop-color="#8D9093" stop-opacity=".2"/><stop offset=".41" stop-color="#8D9093" stop-opacity=".05"/><stop offset=".67" stop-color="#8D9093" stop-opacity="0"/></linearGradient></defs><g class="fills" id="fills-30d8a795-6231-809b-8007-8786453cd023"><path d="M709.3212890625,395.7421875C646.4052734375,409.421875,587.96875,364.8984375,526.294921875,364.044921875L525.58203125,364.044921875C500.8642578125,363.982421875,475.9423828125,372.00390625,454.806640625,384.931640625C443.6904296875,391.8125,432.470703125,399.671875,423.67578125,409.177734375C412.109375,421.80078125,416.69140625,426.279296875,433.85546875,420.884765625C503.3271484375,392.8515625,548.224609375,412.232421875,616.759765625,428.62109375C635.083984375,433.05859375,654.3662109375,436.5390625,673.1591796875,434.076171875C690.384765625,432.01953125,708.6689453125,424.01953125,719.9091796875,411.294921875C732.0234375,397.349609375,722.474609375,393.970703125,709.3212890625,395.7421875ZM375.37890625,396.49609375C298.759765625,382.203125,229.591796875,458.607421875,226.76171875,534.7890625L226.76171875,535.439453125C229.5517578125,561.029296875,242.521484375,523.732421875,246.939453125,518.013671875C252.62109375,508.484375,259.482421875,499.833984375,267.28125,491.99609375C328.669921875,432.630859375,345.935546875,473.1640625,382.728515625,454.90234375C409.076171875,439.470703125,405.431640625,404.109375,375.37890625,396.474609375L375.37890625,396.49609375ZM261.05078125,702.232421875L261.05078125,702.90625C261.72265625,742.91015625,276.50390625,782.2421875,304.4609375,811.12890625C313.642578125,821.4921875,327.18359375,827.55859375,319.34375,805.794921875C315.8828125,796.4296875,312.3603515625,786.3125,310.080078125,776.337890625C271.515625,624.546875,401.5009765625,490.9765625,539.244140625,450.83203125C551.2783203125,446.1484375,556.81640625,436.78515625,541.0361328125,434.767578125C530.38671875,433.9140625,518.7822265625,435.68359375,507.970703125,437.3125C380.2451171875,458.4453125,262.984375,568.521484375,261.0302734375,702.212890625L261.05078125,702.232421875ZM423.755859375,283.32421875C420.498046875,282.896484375,416.8125,283.12109375,413.26953125,283.5078125C305.662109375,294.541015625,180.6240234375,371.2109375,174.984375,486.84375L174.984375,487.556640625C174.658203125,511.904296875,179.462890625,538.146484375,189.6640625,557.203125C191.822265625,561.029296875,195.22265625,566.93359375,200.0283203125,566.404296875C203.509765625,566.138671875,205.28125,559.177734375,205.1796875,554.25C201.6982421875,499.853515625,219.83984375,448.775390625,254.677734375,406.837890625C297.416015625,353.314453125,358.1328125,319.3984375,422.208984375,298.451171875C431.5341796875,294.8671875,435.9521484375,285.1171875,423.7763671875,283.34375L423.755859375,283.32421875ZM268.013671875,1106.359375C309.4287109375,1086.37109375,341.232421875,1039.58984375,337.771484375,993.353515625C335.673828125,969.3515625,321.666015625,948.302734375,301.58984375,935.048828125C288.2529296875,925.84765625,265.08203125,916.400390625,251.48046875,928.1875C238.1240234375,940.60546875,249.892578125,955.794921875,263.3515625,962.30859375C281.146484375,971.103515625,296.1328125,986.595703125,298.453125,1006.91015625C302.36328125,1045.80078125,271.1494140625,1077.330078125,242.5625,1099.4609375C237.20703125,1104.26953125,224.91015625,1110.640625,223.931640625,1117.23046875L223.994140625,1117.419921875C230.7939453125,1123.439453125,259.828125,1110.310546875,267.994140625,1106.33984375L268.013671875,1106.359375ZM170.30078125,649.037109375C176.572265625,676.439453125,197.60546875,697.490234375,211.5732421875,721.20703125C225.052734375,741.646484375,236.759765625,763.41015625,248.1005859375,785.232421875C250.931640625,790.201171875,254.3720703125,800.216796875,258.6884765625,802.619140625L258.912109375,802.6796875C264.98046875,801.560546875,260.1748046875,782.078125,259.279296875,776.58203125C251.419921875,739.08203125,243.41796875,701.623046875,235.212890625,664.18359375C232.341796875,651.3984375,228.818359375,638.349609375,221.3671875,627.4375C197.646484375,592.013671875,162.787109375,608.3203125,170.2802734375,649.017578125L170.30078125,649.037109375ZM742.712890625,809.1953125L743.384765625,809.458984375C817.3369140625,833.15625,959.7021484375,806.853515625,987.90234375,733.5234375C989.55078125,726.296875,986.2939453125,718.15234375,979.859375,714.38671875C968.130859375,708.482421875,953.59375,716.708984375,943.189453125,722.673828125C894.708984375,758.849609375,848.3671875,799.953125,784.2705078125,800.5625C773.845703125,800.9296875,763.6240234375,799.564453125,753.3828125,797.794921875C748.2724609375,796.98046875,742.6318359375,795.798828125,738.62109375,797.205078125C730.923828125,800.03515625,736.7265625,807.525390625,742.693359375,809.21484375L742.712890625,809.1953125ZM448.4345703125,618.68359375C448.9228515625,620.537109375,453.1982421875,622.04296875,460.060546875,622.91796875C478.935546875,624.73046875,504.0615234375,624.771484375,524.2998046875,624.607421875C590.63671875,625.666015625,653.81640625,589.65234375,688.796875,533.994140625C700.2802734375,515.69140625,720.072265625,479.3515625,698.611328125,462.822265625C669.208984375,450.66796875,645.041015625,513.10546875,629.7900390625,532.01953125C597.009765625,582.2421875,550.7490234375,601.48046875,492.658203125,605.87890625C483.537109375,606.9375,473.9873046875,608.28125,465.76171875,610.234375C454.74609375,612.80078125,447.7822265625,615.95703125,448.3935546875,618.541015625L448.4345703125,618.68359375ZM905.806640625,245.396484375C813.611328125,290.0625,723.390625,403.783203125,722.494140625,509.259765625L722.494140625,509.9296875C721.6796875,591.119140625,768.7958984375,676.4609375,848.306640625,703.373046875C903.994140625,722.85546875,969.02734375,704.16796875,1005.6162109375,657.56640625C1020.2958984375,640.384765625,1032.37109375,612.087890625,998.6328125,634.806640625C981.427734375,645.923828125,962.7763671875,651.68359375,942.8828125,651.927734375C900.0029296875,652.314453125,860.5234375,631.712890625,831.9765625,600.564453125C797.015625,563.248046875,778.5693359375,505.8984375,792.109375,451.197265625C805.7919921875,395.4765625,832.75,343.44140625,867.62890625,297.83984375C878.318359375,284.078125,890.4951171875,271.578125,903.56640625,260.03515625C908.9423828125,255.53515625,922.17578125,240.958984375,905.826171875,245.396484375L905.806640625,245.396484375ZM890.595703125,339.796875C892.14453125,335.625,892.734375,331.8984375,891.6962890625,329.802734375C884.6708984375,321.333984375,867.22265625,344.908203125,862.2333984375,350.56640625C831.0400390625,389.166015625,810.373046875,435.5625,809.4765625,486.45703125L809.4765625,487.12890625C809.6201171875,557.40625,862.802734375,612.25,935.00390625,614.896484375C948.5439453125,615.73046875,959.599609375,610.1328125,944.4921875,598.5703125C862.498046875,549.2421875,846.9619140625,447.00390625,880.4560546875,363.4140625C883.470703125,355.453125,887.5625,347.634765625,890.5546875,339.818359375L890.595703125,339.796875ZM584.8330078125,542.095703125C608.615234375,524.89453125,629.119140625,501.9296875,639.80859375,474.283203125C642.0478515625,468.91015625,644.267578125,458.099609375,642.068359375,456.673828125L641.92578125,456.53125C636.9375,454.1484375,628.751953125,465.205078125,623.7021484375,469.458984375C586.583984375,507.99609375,531.099609375,512.373046875,481.7451171875,523.591796875C411.3564453125,539.857421875,337.32421875,588.16796875,323.25390625,663.4921875C320.728515625,681.916015625,332.9052734375,700.9921875,351.779296875,691.8515625C363.7109375,685.845703125,371.8759765625,674.810546875,380.3662109375,664.265625C399.138671875,639.24609375,419.888671875,614.55078125,448.3125,600.30078125C470.1796875,588.615234375,494.8779296875,582.79296875,518.1103515625,574.99609375C541.7294921875,567.259765625,564.67578125,556.7734375,584.8330078125,542.076171875L584.8330078125,542.095703125ZM785.4111328125,937.267578125C801.9443359375,930.58984375,810.2099609375,913.08203125,822.8955078125,901.376953125C847.451171875,878.595703125,883.6123046875,877.78125,912.953125,864.1015625C971.939453125,839.3046875,1024.34765625,783.7890625,1031.1484375,718.51953125L1031.1484375,717.888671875C1030.701171875,704.798828125,1025.2646484375,707.201171875,1023.146484375,717.806640625C1017.89453125,746.796875,997.87890625,770.900390625,975.685546875,789.142578125C947.2412109375,812.900390625,910.5712890625,821.673828125,875.5087890625,830.46875C830.591796875,842.09375,774.986328125,852.435546875,752.2421875,898.16015625C740.0263671875,924.625,756.640625,948.220703125,785.431640625,937.248046875L785.4111328125,937.267578125ZM397.81640625,1047.830078125C398.9765625,1054.83984375,400.4833984375,1060.169921875,402.3564453125,1061.130859375L402.5400390625,1061.2109375C404.046875,1061.859375,405.77734375,1059.759765625,407.365234375,1055.58984375C408.8515625,1051.720703125,410.09375,1046.240234375,410.7861328125,1041.701171875C423.064453125,968.435546875,392.37890625,889.244140625,331.5,845.576171875C315.578125,833.298828125,289.046875,821.30859375,272.63671875,838.388671875C260.58203125,851.5,262.740234375,874.564453125,272.779296875,888.693359375C293.404296875,916.279296875,326.41015625,931.4453125,350.416015625,955.833984375C376.84375,980.5078125,393.8251953125,1011.8203125,397.8359375,1047.830078125L397.81640625,1047.830078125ZM808.826171875,768.662109375C834.1142578125,768.763671875,857.978515625,763.24609375,879.560546875,749.76953125C883.185546875,747.509765625,888.3359375,742.806640625,887.9296875,739.935546875C886.97265625,733.40234375,880.2529296875,735.35546875,875.345703125,735.314453125C866.0810546875,735.25390625,856.736328125,735.90625,847.552734375,734.94921875C815.50390625,731.650390625,787.162109375,720.921875,765.8642578125,694.92578125C747.478515625,672.490234375,732.3701171875,648.712890625,725.3251953125,620.107421875C720.5400390625,600.70703125,703.9248046875,586.986328125,687.453125,586.720703125C669.4951171875,586.435546875,652.9609375,599.34375,646.017578125,618.275390625C640.96875,632.0390625,644.2880859375,644.580078125,649.5,657.384765625C676.275390625,723.060546875,741.0439453125,768.396484375,808.845703125,768.681640625L808.826171875,768.662109375ZM1141.8515625,734.908203125C1141.220703125,721.330078125,1135.744140625,708.849609375,1130.34765625,696.59375C1121.451171875,676.74609375,1114.5078125,655.837890625,1106.16015625,635.703125C1103.818359375,629.412109375,1095.7138671875,616.443359375,1094.248046875,631.28515625C1100.8857421875,715.05859375,1124.76953125,758.646484375,1068.369140625,833.15625C1065.314453125,838.001953125,1063.625,841.849609375,1064.7861328125,843.396484375L1064.9482421875,843.599609375C1066.23046875,845.126953125,1070.4658203125,844.08984375,1075.6376953125,841.748046875C1116.583984375,822.794921875,1143.4609375,779.837890625,1141.873046875,734.94921875L1141.8515625,734.908203125ZM509.29296875,338.63671875C495.5703125,350.810546875,513.833984375,352.154296875,522.7109375,350.771484375C575.42578125,343.177734375,624.884765625,369.48046875,676.4990234375,373.755859375L677.1298828125,373.755859375C691.3623046875,373.591796875,705.716796875,371.3125,719.84765625,367.119140625C737.1142578125,361.826171875,753.4228515625,352.318359375,766.271484375,339.533203125C786.388671875,318.80859375,768.4296875,319.37890625,750.349609375,325.26171875C669.1689453125,348.775390625,622.5419921875,286.31640625,534.296875,324.794921875C525.5009765625,328.744140625,516.521484375,332.732421875,509.314453125,338.63671875L509.29296875,338.63671875ZM570.640625,205.455078125C569.09375,204.4765625,566.22265625,206.634765625,562.904296875,210.849609375C559.6875,214.921875,556.4091796875,220.234375,553.416015625,224.75390625C529.2265625,261.96875,494.6533203125,288.455078125,454.765625,305.677734375C425.4462890625,320.478515625,386.5771484375,319.255859375,361.10546875,340.775390625C339.603515625,363.5546875,365.7880859375,386.173828125,390.853515625,385.888671875C477.1845703125,384.97265625,544.2529296875,299.833984375,569.64453125,222.962890625C571.0888671875,218.056640625,573.5732421875,208.529296875,570.82421875,205.537109375L570.640625,205.4140625L570.640625,205.455078125ZM1181.49609375,174.001953125C1162.783203125,150.12109375,1126.3359375,146.435546875,1100.275390625,157.958984375C1081.359375,166.041015625,1066.7197265625,178.623046875,1055.134765625,194.888671875C1050.87890625,201.607421875,1043.447265625,208.40625,1043.79296875,216.3671875C1047.4580078125,226.158203125,1064.7646484375,207.24609375,1070.302734375,204.599609375C1094.10546875,188.068359375,1119.9228515625,181.94140625,1148.08203125,190.533203125C1154.251953125,192.26171875,1160.849609375,194.603515625,1166.998046875,194.765625L1167.609375,194.765625C1180.212890625,195.1953125,1189.35546875,185.931640625,1181.49609375,174.021484375L1181.49609375,174.001953125ZM879.96875,136.9296875C867.4462890625,134.46484375,854.0068359375,136.888671875,841.26171875,137.05078125C779.138671875,139.697265625,737.8671875,144.400390625,695.251953125,193.931640625C677.1103515625,211.216796875,657.17578125,226.404296875,633.3134765625,234.810546875C618.55078125,239.697265625,603.748046875,245.376953125,592.611328125,256.615234375C587.134765625,262.212890625,580.86328125,269.1953125,582.1455078125,273.451171875L582.267578125,273.654296875C585.341796875,275.99609375,590.47265625,272.900390625,594.0771484375,272.005859375C621.748046875,262.599609375,651.5771484375,261.357421875,680.5302734375,258.263671875C731.962890625,251.890625,760.833984375,229.865234375,797.8310546875,195.681640625C821.2265625,178.96875,846.47265625,163.740234375,873.26953125,153.255859375C882.67578125,150.548828125,895.7265625,141.978515625,879.96875,136.9296875ZM528.3115234375,67.853515625C509.0693359375,189.26953125,364.26171875,253.296875,256.509765625,207.85546875C250.462890625,205.2109375,233.990234375,198.919921875,237.47265625,210.60546875C241.849609375,219.603515625,251.337890625,226.60546875,259.0146484375,233.28515625C281.94140625,251.1171875,313.27734375,262.76171875,342.7392578125,263.23046875L343.37109375,263.23046875C438.5595703125,265.34765625,542.767578125,210.298828125,554.23046875,112.703125C555.2890625,98.390625,553.232421875,84.080078125,547.287109375,70.134765625C541.931640625,57.083984375,532.1181640625,51.4453125,528.3115234375,67.833984375L528.3115234375,67.853515625ZM144.361328125,438.83984375C144.748046875,446.90234375,146.90625,466.62890625,154.4189453125,467.1171875C155.8037109375,466.873046875,157.0859375,465.265625,158.1455078125,462.6796875C160.7109375,456.001953125,161.28125,448.205078125,162.970703125,440.9375C168.611328125,414.67578125,178.3232421875,388.779296875,203.34765625,375.9140625C208.498046875,372.77734375,213.6904296875,369.623046875,217.498046875,365.734375C227.169921875,356.81640625,225.01171875,341.52734375,214.525390625,334.564453125C202.77734375,326.564453125,186.916015625,331.857421875,176.654296875,340.18359375C149.6962890625,363.392578125,144.361328125,403.703125,144.33984375,438.126953125L144.380859375,438.83984375L144.361328125,438.83984375ZM417.26171875,163.130859375C362.9990234375,170.51953125,313.5625,153.5,269.5615234375,121.904296875C262.353515625,116.814453125,254.5146484375,111.216796875,246.166015625,108.265625C224.869140625,99.470703125,200.0078125,116.38671875,203.408203125,139.392578125C205.1796875,152.5234375,217.2333984375,163.96484375,228.818359375,171.498046875C256.3876953125,189.6171875,289.9833984375,196.619140625,322.357421875,196.720703125L323.029296875,196.720703125C359.76171875,195.275390625,400.421875,190.04296875,431.716796875,169.17578125C433.7333984375,167.201171875,434.283203125,165.4296875,433.18359375,164.26953125C430.435546875,161.623046875,421.9443359375,162.662109375,417.28125,163.150390625L417.26171875,163.130859375ZM694.9462890625,966.625C739.3740234375,994.80078125,796.2431640625,992.337890625,845.3740234375,980.58984375C850.5458984375,979.185546875,859.544921875,976.865234375,862.0703125,972.28515625L862.171875,971.958984375C861.9892578125,964.79296875,837.1279296875,967.642578125,830.7138671875,966.970703125C787.8955078125,965.341796875,750.470703125,943.19140625,712.2529296875,926.15234375C666.5224609375,906.73046875,658.1533203125,943.35546875,694.9462890625,966.64453125L694.9462890625,966.625ZM668.35546875,867.642578125C668.517578125,879.166015625,667.62109375,893.62109375,675.765625,902.23046875C682.7294921875,909.763671875,693.6630859375,909.58203125,701.3798828125,901.744140625C715.34765625,887.451171875,720.1533203125,867.033203125,720.1943359375,847.671875C719.013671875,773.384765625,676.4990234375,710.845703125,614.1533203125,672.103515625C603.9111328125,665.52734375,592.630859375,660.927734375,580.8623046875,658.015625C560.96875,653.474609375,565.490234375,665.203125,577.4619140625,673.181640625C639.279296875,718.376953125,668.4365234375,792.48046875,668.333984375,866.951171875L668.333984375,867.623046875L668.35546875,867.642578125ZM420.0712890625,1164.810546875C461.322265625,1154.201171875,494.8369140625,1124.259765625,520.20703125,1091.28125C577.7880859375,1016.66015625,593.42578125,894.0078125,537.5751953125,814.48828125C517.2138671875,785.5390625,488.3212890625,763.958984375,452.42578125,757.76953125C444.6875,756.8125,437.3779296875,756.365234375,436.197265625,760.986328125C436.0751953125,767.052734375,445.84765625,772.205078125,450.7138671875,776.11328125C503.1640625,810.19140625,526.0498046875,870.94140625,525.541015625,933.869140625L525.541015625,934.51953125C521.8154296875,1016.91015625,483.353515625,1092.80078125,417.322265625,1143.5C412.7001953125,1147.201171875,406.8564453125,1151.349609375,403.2109375,1155.53125C394.25390625,1166.970703125,410.7861328125,1167.26953125,420.0712890625,1164.810546875ZM1160.564453125,847.44921875C1145.7421875,850.15625,1131.427734375,853.005859375,1116.8291015625,855.876953125C1037.359375,867.052734375,981.9560546875,901.744140625,961.26953125,982.3203125C956.220703125,1000.599609375,954.75390625,1019.451171875,952.71875,1038.201171875C952.3515625,1041.419921875,952.4130859375,1045.78125,954.8974609375,1047.73046875C958.9892578125,1050.66015625,963.021484375,1046.7109375,965.830078125,1042.51953125C993.37890625,1001.330078125,1027.158203125,968.029296875,1070.609375,946.876953125C1085.30859375,939.140625,1102.4736328125,934.88671875,1117.927734375,928.16796875C1145.150390625,915.546875,1169.298828125,890.017578125,1173.06640625,859.296875L1173.107421875,858.666015625C1173.615234375,848.955078125,1170.11328125,845.47265625,1160.5859375,847.44921875L1160.564453125,847.44921875ZM995.822265625,236.01171875C1005.798828125,221.435546875,1017.689453125,207.509765625,1029.98828125,194.806640625C1032.00390625,192.853515625,1035.017578125,189.228515625,1034.875,187.62109375L1034.875,187.3359375C1033.939453125,183.7734375,1027.0966796875,185.30078125,1020.845703125,187.51953125C1004.76171875,193.97265625,990.2841796875,204.62109375,977.84375,216.529296875C928.18359375,265.51171875,897.560546875,331.654296875,897.845703125,401.625C897.3974609375,436.1328125,911.93359375,468.07421875,920.4052734375,500.890625C926.6552734375,521.53515625,924.802734375,543.68359375,931.8681640625,564.04296875C951.578125,615.99609375,999.833984375,574.505859375,1002.724609375,537.474609375C1009.484375,473.794921875,944.98046875,448.123046875,951.9443359375,359.443359375C955.650390625,315.369140625,971.7548828125,273.20703125,995.822265625,236.01171875ZM393.091796875,1146.01953125C464.294921875,1088.080078125,529.390625,967.275390625,470.6484375,882.015625C455.763671875,858.666015625,434.4462890625,837.939453125,428.3173828125,810.212890625C426.8515625,799.46484375,423.8583984375,779.798828125,416.263671875,798.32421875C400.158203125,861.107421875,435.19921875,921.287109375,447.048828125,981.93359375C459.978515625,1037.9609375,427.216796875,1090.810546875,391.19921875,1131C385.76171875,1137.9609375,372.4052734375,1149.08984375,372.7509765625,1155.87109375L372.8330078125,1156.060546875C377.39453125,1159.109375,388.4091796875,1149.599609375,393.091796875,1146.01953125ZM1030.9658203125,855.693359375C1069.671875,811.69921875,1092.6396484375,753.005859375,1080.544921875,693.8046875C1078.345703125,683.40234375,1074.7626953125,673.447265625,1070.8740234375,663.57421875C1069.142578125,658.748046875,1064.521484375,650.931640625,1061.5068359375,651.2578125C1057.353515625,650.5859375,1056.580078125,661.984375,1057.0283203125,666.912109375C1063.767578125,772.021484375,990.875,864.9765625,899.474609375,909.376953125C881.1083984375,918.76171875,861.541015625,924.849609375,842.0546875,931.220703125C837.0263671875,932.953125,832.302734375,935.212890625,830.265625,937.470703125C824.2802734375,943.884765625,840.42578125,945.228515625,846.43359375,944.71875L847.125,944.71875C918.6943359375,942.255859375,983.5654296875,911.5546875,1030.9453125,855.693359375L1030.9658203125,855.693359375ZM906.966796875,1302.130859375C889.96484375,1321.4296875,894.4853515625,1354.939453125,923.5400390625,1357.009765625C948.03515625,1356.28125,964.89453125,1334.859375,984.990234375,1323.640625C1019.625,1301.83984375,1059.0029296875,1297.201171875,1098.8701171875,1304.37109375C1103.7978515625,1304.9609375,1115.078125,1307.810546875,1118.25390625,1304.53125L1118.396484375,1304.240234375C1118.7216796875,1298.3203125,1109.0302734375,1293.2109375,1104.490234375,1290.201171875C1046.8271484375,1257.400390625,955.751953125,1249.560546875,906.966796875,1302.130859375ZM792.537109375,1088.669921875C787.42578125,1084.900390625,775.0263671875,1081,763.4609375,1078.25C728.337890625,1069.66015625,690.8740234375,1064.12109375,655.4658203125,1074.03125C589.2314453125,1093.939453125,545.943359375,1154.810546875,482.966796875,1181.359375C459.8974609375,1191.259765625,435.5048828125,1196.53125,410.2578125,1196.791015625C399.0380859375,1197.060546875,387.412109375,1195.5703125,376.171875,1195.1796875C368.39453125,1194.9609375,363.05859375,1195.689453125,362.0009765625,1197.791015625C359.048828125,1200.439453125,371.85546875,1208.759765625,379.328125,1211.98046875C426.220703125,1232.75,481.3583984375,1238.1796875,529.8583984375,1220.310546875C619.732421875,1187.900390625,662.6533203125,1093.41015625,767.65625,1098.359375L768.3681640625,1098.359375C779.6484375,1098.1796875,803.6953125,1097.3203125,792.517578125,1088.669921875L792.537109375,1088.669921875ZM768.4501953125,1144.720703125C776.0654296875,1134.859375,786.6123046875,1113.810546875,764.927734375,1116.66015625C712.130859375,1131.080078125,667.2548828125,1165.599609375,623.90625,1197.58984375C591.6953125,1222.16015625,555.26953125,1241.541015625,514.3828125,1246.7109375C506.6669921875,1248.259765625,492.392578125,1247.951171875,487.8125,1252.53125L487.7099609375,1252.720703125C487.771484375,1259.83984375,512.7138671875,1262.689453125,519.6982421875,1263.669921875C617.0244140625,1275.380859375,714.349609375,1226.6796875,768.4501953125,1144.720703125ZM420.681640625,1242.990234375C409.462890625,1236.080078125,409.849609375,1268.26953125,409.646484375,1274.560546875L409.646484375,1275.310546875C410.337890625,1292.349609375,409.40234375,1317.150390625,426.505859375,1326.189453125C430.435546875,1327.80078125,434.8330078125,1327.5703125,438.2529296875,1325.130859375C451.0615234375,1313.30078125,439.556640625,1294.451171875,435.7080078125,1279.87109375C431.716796875,1269.130859375,427.767578125,1249.240234375,420.681640625,1242.990234375ZM218.6171875,1072.140625C215.0751953125,1062.189453125,191.720703125,1074.689453125,183.271484375,1074.75C131.818359375,1082.560546875,75.1943359375,1075.78125,29.259765625,1104.451171875C20.97265625,1109.8203125,9.529296875,1115.91015625,5.1923828125,1124.599609375L5.05078125,1124.990234375C3.216796875,1135.62109375,24.474609375,1124.830078125,30.27734375,1122.76953125C36.9150390625,1120.189453125,43.716796875,1117.91015625,50.6591796875,1116.220703125C69.47265625,1111.53125,89.0390625,1111.330078125,108.09765625,1114.439453125C125.52734375,1117.05078125,143.4853515625,1124.16015625,160.79296875,1122.380859375C176.8369140625,1121.140625,190.966796875,1111.900390625,201.677734375,1100.28125C208.009765625,1093.009765625,219.7783203125,1081.53125,218.6171875,1072.140625ZM555.6552734375,1327.58984375L556.3681640625,1327.58984375C607.962890625,1325.26953125,655.7509765625,1306.140625,687.2900390625,1259.640625C697.6953125,1244.759765625,698.6923828125,1232.33984375,678.861328125,1247.099609375C614.3974609375,1293.8203125,509.638671875,1308.03125,448.90234375,1249.810546875C442.611328125,1244.8203125,435.7490234375,1243.580078125,436.2783203125,1252.9609375C438.396484375,1267.400390625,448.3525390625,1281.080078125,458.2275390625,1291.640625C482.986328125,1317.390625,519.4130859375,1327.25,555.634765625,1327.58984375L555.6552734375,1327.58984375ZM291.490234375,1306.4609375C305.3359375,1306.76953125,320.19921875,1304.939453125,331.560546875,1296.201171875C341.4970703125,1289.099609375,345.1826171875,1273.9296875,332.84375,1268.08984375C328.6904296875,1265.970703125,322.5,1265.9296875,317.7763671875,1266.580078125C292.4267578125,1269.919921875,265.85546875,1277.9609375,242.6640625,1266.259765625C238.1640625,1264.439453125,223.76953125,1254.390625,223.3212890625,1264C223.7080078125,1268.2109375,226.7216796875,1272.060546875,229.3076171875,1275.310546875C245.0263671875,1293.451171875,266.9345703125,1305.33984375,290.87890625,1306.4609375L291.470703125,1306.4609375L291.490234375,1306.4609375ZM298.658203125,1352.451171875L299.330078125,1352.451171875C331.0927734375,1351.701171875,358.4169921875,1333.08984375,379.4296875,1309.109375C383.828125,1303.83984375,389.345703125,1297.220703125,390.017578125,1290.400390625C388.755859375,1277.939453125,365.9912109375,1299.419921875,360.47265625,1301.640625C351.1279296875,1307.30078125,340.947265625,1311.509765625,330.4208984375,1314.400390625C299.390625,1322.970703125,275.8125,1319.451171875,247.693359375,1305.55078125C234.541015625,1301.009765625,233.1962890625,1311.859375,238.408203125,1320.73046875C249.689453125,1340.48046875,275.5068359375,1352.6796875,298.63671875,1352.4296875L298.658203125,1352.451171875ZM93.763671875,954.51171875C90.607421875,983.96875,118.501953125,994.3515625,139.921875,975.908203125C180.3798828125,938.734375,179.2802734375,870.615234375,173.314453125,820.046875L173.212890625,819.333984375C171.5625,806.548828125,168.447265625,782.810546875,163.4794921875,774.87109375C162.91015625,773.9140625,162.2177734375,772.998046875,161.30078125,772.8359375C159.7744140625,772.693359375,158.71484375,776.1328125,158.1044921875,782.037109375C157.310546875,789.3046875,157.4326171875,798.73046875,156.69921875,806.5078125C152.525390625,850.439453125,122.8193359375,885.150390625,103.86328125,923.689453125C99.056640625,933.298828125,94.7001953125,943.865234375,93.763671875,954.51171875ZM1205.990234375,1267.83984375C1224.498046875,1280.7109375,1237.732421875,1261.26953125,1234.861328125,1242.349609375C1233.865234375,1233.03125,1230.646484375,1224.130859375,1226.33203125,1215.439453125C1160.869140625,1089.609375,984.5830078125,1074.439453125,886.095703125,1170.349609375C873.431640625,1182.541015625,861.2763671875,1195.880859375,851.9296875,1210.80078125C847.654296875,1217.880859375,845.619140625,1223.240234375,846.513671875,1224.701171875L846.5751953125,1224.810546875C847.5732421875,1226.291015625,851.80859375,1223.439453125,857.8759765625,1217.80078125C863.5361328125,1212.609375,870.2353515625,1205.451171875,876.9951171875,1199.5C941.560546875,1143.330078125,1030.109375,1139.7109375,1105.2431640625,1177.6796875C1126.703125,1188.099609375,1146.556640625,1201.580078125,1163.39453125,1218.580078125C1179.09375,1232.791015625,1189.150390625,1254.9609375,1205.990234375,1267.8203125L1205.990234375,1267.83984375ZM1313.990234375,1194.291015625L1314.150390625,1194.490234375C1315.41015625,1195.900390625,1318.669921875,1194,1322.26953125,1190.560546875C1335.30078125,1177.55078125,1344.9296875,1161.6796875,1349.759765625,1143.740234375C1369.490234375,1072.380859375,1354.359375,1005.41015625,1307.330078125,948.974609375C1293.16015625,931.974609375,1277.69921875,916.33984375,1262.490234375,900.48046875C1258.75,896.369140625,1251.720703125,891.50390625,1246.7734375,895.064453125C1235.044921875,906.26171875,1254.4296875,930.326171875,1260.109375,942.01171875C1268.33984375,956.26171875,1277.91015625,969.740234375,1286.0703125,983.96875C1317.01953125,1038.689453125,1337.7109375,1104.939453125,1319.890625,1167.880859375C1318.419921875,1175.541015625,1311.890625,1187.470703125,1314.009765625,1194.26953125L1313.990234375,1194.291015625ZM1266.830078125,75.712890625C1266.830078125,75.712890625,1266.890625,75.732421875,1266.91015625,75.75390625C1271.779296875,77.5859375,1276.51953125,72.78125,1275.080078125,67.79296875C1274.94921875,67.38671875,1274.830078125,66.958984375,1274.689453125,66.55078125C1274.080078125,64.73828125,1272.83984375,63.08984375,1271.669921875,61.501953125C1258.580078125,43.486328125,1246.69140625,24.083984375,1247.220703125,0.123046875L1208.576171875,0.123046875C1208.23046875,26.8125,1239.259765625,64.90234375,1266.810546875,75.732421875L1266.830078125,75.712890625ZM1231.482421875,950.236328125C1218.9609375,949.625,1210.65234375,961.474609375,1215.4375,972.9765625C1220.181640625,985.251953125,1231.54296875,994.291015625,1239.9921875,1004.2109375C1259.849609375,1026.009765625,1275.619140625,1050.400390625,1284.849609375,1078.080078125C1286.720703125,1084.330078125,1295.69921875,1104.859375,1297.8203125,1089.5703125C1295.400390625,1049.380859375,1278.560546875,1011.08984375,1259.94921875,975.541015625C1254.080078125,964.5078125,1245.53125,951.294921875,1232.09375,950.27734375L1231.482421875,950.236328125ZM179.728515625,1139.490234375C160.52734375,1149.240234375,138.4560546875,1150.33984375,117.7080078125,1145.390625C107.4462890625,1143.880859375,94.638671875,1136.58984375,84.8662109375,1141.08984375C78.513671875,1146.810546875,86.9423828125,1156.4609375,94.517578125,1163C109.095703125,1174.890625,127.380859375,1181.439453125,146.05078125,1181.791015625L146.763671875,1181.791015625C169.568359375,1182.259765625,194.9375,1173.099609375,204.3037109375,1150.541015625C206.33984375,1145.060546875,208.2744140625,1136.66015625,203.08203125,1132.689453125C196.7705078125,1128.880859375,186.28515625,1136.509765625,179.728515625,1139.4609375L179.728515625,1139.490234375ZM1105.6298828125,1200.150390625C1072.1572265625,1181.951171875,1031.392578125,1179.76953125,994.98828125,1187.75C957.60546875,1196.490234375,921.3408203125,1216.240234375,898.0888671875,1247.359375C887.37890625,1262.859375,898.0078125,1262.451171875,910.060546875,1255.75C946.650390625,1235.509765625,990.7734375,1225.9296875,1031.6376953125,1236.83984375C1048.96484375,1241.169921875,1066.3740234375,1249.08984375,1084.2509765625,1249.970703125L1084.9228515625,1249.970703125C1119.822265625,1251.291015625,1141.181640625,1220.041015625,1105.609375,1200.150390625L1105.6298828125,1200.150390625ZM1.140625,179.498046875L1.140625,209.017578125C21.4814453125,203.744140625,38.076171875,193.40234375,53.34765625,180.90234375C60.47265625,175.060546875,66.703125,168.078125,72.93359375,161.216796875C73.2392578125,160.890625,73.40234375,160.44140625,73.50390625,159.955078125C74.09375,156.9609375,71.3046875,154.396484375,68.291015625,154.701171875C67.9453125,154.7421875,67.619140625,154.783203125,67.294921875,154.84375C66.31640625,155.0078125,65.603515625,156.25,64.646484375,156.859375C24.556640625,182.796875,3.970703125,179.009765625,1.140625,179.498046875ZM1096.263671875,990.7890625C1070.1611328125,1009.4609375,1039.8837890625,1021.58984375,1011.7861328125,1037.23046875C987.556640625,1051.26953125,965.5458984375,1068.759765625,945.693359375,1088.76953125C940.5830078125,1094.580078125,931.052734375,1102.390625,929.6279296875,1109.5L929.6279296875,1109.720703125C929.873046875,1110.8203125,931.115234375,1110.9609375,933.1298828125,1110.169921875C937.79296875,1108.259765625,942.4150390625,1104.099609375,946.5478515625,1100.830078125C962.1650390625,1087.919921875,979.4111328125,1078.189453125,997.837890625,1071.37109375C1019.8076171875,1062.8203125,1044.119140625,1060.599609375,1066.7607421875,1054.451171875C1107.767578125,1043.560546875,1143.9296875,1024.62109375,1174.4296875,992.642578125C1204.666015625,961.025390625,1228.591796875,923.56640625,1225.046875,877.29296875C1224.0703125,863.44921875,1221.1796875,849.953125,1218.41015625,836.455078125C1214.17578125,814.732421875,1206.966796875,819.619140625,1204.21875,837.513671875C1190.779296875,900.990234375,1148.53125,954.796875,1096.2841796875,990.7890625L1096.263671875,990.7890625ZM1084.4140625,269.806640625C1105.5283203125,251.30078125,1132.689453125,240.369140625,1159.36328125,232.369140625C1163.802734375,230.962890625,1176.52734375,228.154296875,1173.046875,221.720703125C1168.26171875,216.611328125,1153.193359375,217.46484375,1145.08984375,217.16015625L1144.4375,217.16015625C1049.4541015625,216.833984375,988.3291015625,299.896484375,991.6484375,387.638671875C992.5849609375,461.966796875,1087.630859375,528.068359375,1053.689453125,600.6875C1049.53515625,608.259765625,1045.849609375,622.876953125,1059.796875,617.9296875C1068.77734375,613.59375,1074.8642578125,604.71875,1080.9521484375,597.0625C1114.9765625,554.392578125,1099.318359375,499.935546875,1074.0703125,457.203125C1054.849609375,425.626953125,1034.6708984375,390.55078125,1042.6728515625,352.54296875C1049.494140625,322.310546875,1062.66796875,292.2421875,1084.4140625,269.828125L1084.4140625,269.806640625ZM1018.6875,112.458984375L1019.318359375,112.376953125C1024.4501953125,112.03125,1031.6171875,108.44921875,1029.41796875,105.08984375C1024.4501953125,98.798828125,1011.1748046875,97.251953125,1003.72265625,93.240234375C976.9482421875,81.576171875,962.4912109375,54.009765625,941.1728515625,35.3828125C930.6259765625,25.060546875,910.5908203125,22.59765625,906.25390625,39.8828125C903.5859375,52.1171875,910.5302734375,64.759765625,917.63671875,74.44921875C940.2373046875,104.498046875,982.73046875,112.8046875,1018.6875,112.458984375ZM1211.529296875,670.59765625C1226.57421875,666.830078125,1236.1640625,611.19140625,1237.326171875,596.3515625C1240.298828125,523.75390625,1251.638671875,470.84375,1299.099609375,413.291015625C1308.849609375,403.25390625,1312.30078125,390.326171875,1294.599609375,400.2421875C1231.70703125,435.6640625,1186.361328125,497.939453125,1185.9140625,570.375L1185.9140625,571.06640625C1186.076171875,603.0078125,1191.4921875,633.6875,1201.65234375,660.009765625C1203.404296875,664.34765625,1206.03125,671.0859375,1211.529296875,670.59765625ZM762.9521484375,262.15234375C748.150390625,270.662109375,731.677734375,276.849609375,714.349609375,280.087890625C709.931640625,281.146484375,703.9658203125,282.041015625,701.013671875,285.3203125C697.8369140625,292.283203125,717.5673828125,290.9375,723.1669921875,291.041015625L723.818359375,291.041015625C783.55859375,289.87890625,845.39453125,273.796875,890.005859375,233.22265625C941.091796875,179.884765625,996.515625,152.625,1069.896484375,142.48828125C1088.1201171875,137.826171875,1082.2958984375,131.10546875,1068.2265625,131.06640625C967.9072265625,131.8203125,867.34375,168.87109375,794.4296875,237.82421875C784.83984375,247.005859375,774.375,255.658203125,762.9521484375,262.130859375L762.9521484375,262.15234375ZM579.82421875,1066.4609375C575.8740234375,1073.91015625,577.13671875,1078.859375,584.9150390625,1073.259765625C628.42578125,1026.05078125,642.8623046875,960.048828125,643.9619140625,896.775390625L643.9619140625,896.103515625C644.552734375,788.388671875,578.296875,644.82421875,453.30078125,655.533203125C399.75,660.05078125,347.70703125,704.5546875,340.560546875,759.17578125C337.9345703125,779.9609375,341.701171875,801.193359375,352.349609375,819.08984375C355.7900390625,825.216796875,364.2001953125,834.275390625,369.43359375,828.474609375C373.76953125,823.689453125,374.4013671875,816.5859375,375.96875,810.498046875C380.2041015625,790.119140625,386.962890625,769.8828125,399.771484375,752.7421875C442.833984375,694.66015625,512.9580078125,731.22265625,547.2060546875,778.63671875C589.455078125,833.076171875,609.9384765625,900.888671875,609.185546875,969.6171875C609.55078125,1004.490234375,599.8798828125,1037.669921875,579.82421875,1066.48046875L579.82421875,1066.4609375ZM0.896484375,94.400390625C0.896484375,112.03125,0.75390625,132.978515625,1.1201171875,149.490234375C15.921875,150.203125,25.044921875,147.12890625,33.228515625,142.955078125C46.626953125,136.15625,48.09375,121.701171875,37.974609375,110.361328125C28.4453125,99.693359375,16.044921875,95.439453125,0.896484375,94.380859375L0.896484375,94.400390625ZM53.630859375,207.958984375C53.8154296875,207.775390625,53.95703125,207.509765625,54.0380859375,207.205078125C54.7314453125,204.66015625,52.41015625,202.33984375,49.783203125,202.5234375C49.171875,202.5625,48.58203125,202.685546875,48.0732421875,202.91015625C37.4443359375,207.8359375,27.447265625,214.330078125,16.349609375,218.13671875C8.71484375,220.744140625,6.150390625,221.76171875,1.05859375,222.94140625L1.05859375,248.267578125C21.9912109375,239.900390625,38.544921875,223.064453125,53.630859375,207.958984375ZM185.3681640625,159.955078125C181.8251953125,149.8359375,171.705078125,159.75,168.75390625,165.267578125C113.716796875,243.076171875,205.341796875,353.21484375,287.9677734375,309.931640625C295.419921875,306.431640625,324.0078125,284.078125,304.765625,280.23046875C241.7685546875,274.142578125,188.380859375,237.580078125,186.01953125,172.6171875L186.01953125,172.005859375C185.8974609375,168.037109375,186.4267578125,163.904296875,185.3681640625,159.99609375L185.3681640625,159.955078125ZM37.953125,1137.099609375C28.384765625,1139.140625,11.462890625,1143.23046875,1.099609375,1145.880859375L1.099609375,1162.41015625C23.353515625,1157.240234375,37.302734375,1157.75,54.853515625,1157.28125C57.8671875,1157.201171875,62.55078125,1154.630859375,63.3232421875,1152.2109375C64.259765625,1149.28125,62.85546875,1144.41015625,60.697265625,1141.890625C54.62890625,1134.8203125,45.9765625,1135.390625,37.93359375,1137.099609375L37.953125,1137.099609375ZM153.625,986.8203125C138.375,1004.8203125,156.822265625,1005.28125,170.525390625,1000.791015625C182.1513671875,997.12109375,193.20703125,990.953125,202.837890625,983.54296875C237.064453125,957.626953125,249.3828125,913.34765625,248.568359375,871.6328125L248.568359375,870.94140625C247.55078125,845.595703125,242.318359375,819.76171875,232.50390625,796.064453125C222.568359375,772.876953125,206.685546875,752.802734375,188.03515625,734.84765625C163.8056640625,712.107421875,152.76953125,716.810546875,170.09765625,747.876953125C201.453125,805.876953125,216.236328125,880.509765625,187.873046875,941.9296875C180.15625,959.173828125,166.26953125,972.95703125,153.60546875,986.798828125L153.625,986.8203125ZM26.490234375,436.78515625C43.20703125,501.685546875,85.96484375,556.205078125,149.9599609375,583.40234375C159.44921875,586.986328125,171.828125,593.419921875,181.31640625,591.3828125L181.7236328125,591.2421875C198.3994140625,582.587890625,157.697265625,535.826171875,150.08203125,525.87109375C127.7265625,498.28515625,105.673828125,469.8046875,85.720703125,440.205078125C56.7265625,394.01171875,33.7802734375,340.328125,47.869140625,285.177734375C49.091796875,280.595703125,51.7578125,266.58984375,47.095703125,267.16015625C43.51171875,267.56640625,38.21875,276.322265625,36.42578125,281.0859375C15.43359375,330.677734375,11.8515625,383.32421875,26.470703125,436.763671875L26.490234375,436.78515625ZM134.404296875,201.75L134.2822265625,201.626953125C127.705078125,201.4453125,120.171875,233.060546875,117.3623046875,239.982421875C107.99609375,271.0078125,96.2470703125,302.318359375,96.6552734375,335.115234375C96.9609375,349.935546875,100.64453125,366.89453125,112.658203125,376.44140625C129.333984375,389.57421875,142.8740234375,374.181640625,143.2412109375,356.533203125C144.0546875,344.1953125,141.509765625,331.775390625,139.291015625,319.6640625C133.1015625,288.455078125,130.1083984375,257.18359375,133.85546875,225.669921875C134.404296875,219.216796875,136.94921875,206.228515625,134.404296875,201.75ZM1363.099609375,1172.609375C1363.810546875,1172.470703125,1364.5,1172.30078125,1365.189453125,1172.099609375C1378.529296875,1168.150390625,1382.599609375,1166.4609375,1395.87890625,1162.41015625L1395.87890625,1145.880859375C1379.509765625,1149.849609375,1370.7890625,1155.951171875,1359.640625,1166.0703125C1359.609375,1166.08984375,1359.58984375,1166.109375,1359.5703125,1166.130859375C1356.779296875,1168.720703125,1359.369140625,1173.359375,1363.099609375,1172.609375ZM434.771484375,1344.01953125C393.947265625,1349.109375,354.345703125,1363.359375,312.361328125,1360.01953125C311.791015625,1359.98046875,311.19921875,1360.150390625,310.609375,1360.451171875C307.5546875,1362.01953125,307.2705078125,1366.400390625,309.9990234375,1368.451171875C310.4873046875,1368.8203125,311.017578125,1369.060546875,311.546875,1369.12109375C324.638671875,1370.37109375,337.8125,1371.830078125,350.923828125,1371.5703125C390.0380859375,1370.791015625,429.212890625,1369.759765625,467.41015625,1379.91015625C480.1162109375,1383.291015625,492.5771484375,1388.060546875,504.203125,1394.98046875L596.9892578125,1394.98046875C550.4228515625,1357.791015625,483.39453125,1337.9609375,434.8125,1344.01953125L434.771484375,1344.01953125ZM791.0712890625,1195.919921875C791.865234375,1191.259765625,791.25390625,1186.349609375,791.294921875,1181.541015625C786.5712890625,1183.970703125,780.97265625,1185.490234375,777.24609375,1189C757.8818359375,1207.0703125,747.6201171875,1230.33984375,741.125,1255.509765625C733.55078125,1284.859375,758.330078125,1372.5,776.390625,1395L843.6015625,1395C838.5732421875,1388.7109375,834.1142578125,1382.48046875,829.1875,1376.109375C787.5078125,1322.419921875,780.03515625,1261.609375,791.0908203125,1195.919921875L791.0712890625,1195.919921875ZM715.51171875,1310.509765625C715.876953125,1307.810546875,715.2265625,1304.890625,714.533203125,1302.189453125C711.5,1290.109375,699.8740234375,1286.37109375,688.2265625,1293.599609375C678.1279296875,1299.87109375,671.7138671875,1308.400390625,668.1298828125,1318.640625C658.8251953125,1345.26953125,662.1240234375,1370.669921875,677.3134765625,1394.98046875L749.47265625,1394.98046875C748.9638671875,1394,711.31640625,1341.380859375,715.51171875,1310.509765625ZM870.662109375,1295.669921875C868.6474609375,1269.330078125,874.591796875,1244.83984375,893.181640625,1224.560546875C893.365234375,1224.359375,893.5283203125,1224.109375,893.650390625,1223.87109375C895.298828125,1220.490234375,891.8994140625,1216.78125,888.1728515625,1217.400390625C887.765625,1217.4609375,887.359375,1217.541015625,886.951171875,1217.640625C885.9541015625,1217.859375,885.1796875,1218.9609375,884.2841796875,1219.640625C833.60546875,1257.849609375,818.2529296875,1346,879.1533203125,1394.9609375L948.4423828125,1394.9609375C900.71484375,1366.91015625,874.287109375,1343.03125,870.662109375,1295.669921875ZM1300.94921875,1166.640625L1300.94921875,1165.951171875C1300.76953125,1151.78125,1297.66015625,1135.8203125,1291.41015625,1123.259765625C1286.26953125,1113.73046875,1280.119140625,1115.4609375,1280.5703125,1127.451171875C1288.330078125,1212.58984375,1243.962890625,1227.23046875,1248.30078125,1271.76953125C1248.564453125,1283.970703125,1261.23046875,1307.33984375,1266.3203125,1283.380859375C1268.5390625,1259.880859375,1283.76953125,1240.201171875,1291.16015625,1218.291015625C1297.01953125,1201.330078125,1300.609375,1183.91015625,1300.9296875,1166.640625L1300.94921875,1166.640625ZM1203.505859375,1297.16015625C1190.576171875,1281.87109375,1174.755859375,1268.900390625,1159.4453125,1255.76953125C1150.0390625,1247.7109375,1138.064453125,1246.609375,1126.765625,1251.310546875C1122.2646484375,1253.189453125,1117.37890625,1258.2109375,1116.1982421875,1262.73046875C1115.3017578125,1266.169921875,1119.0068359375,1272.16015625,1122.3466796875,1275.08984375C1129.06640625,1280.990234375,1137.23046875,1285.189453125,1144.296875,1290.75C1178.400390625,1317.599609375,1198.39453125,1353.25,1208.515625,1394.939453125L1247.36328125,1394.939453125C1246.9765625,1391.3203125,1246.89453125,1387.630859375,1246.18359375,1384.08984375C1239.525390625,1351.41015625,1224.8046875,1322.28125,1203.505859375,1297.140625L1203.505859375,1297.16015625ZM1037.521484375,1336.919921875C1012.640625,1337.75,989.224609375,1344.2109375,968.35546875,1358.189453125C965.9931640625,1359.759765625,964.9140625,1363.220703125,963.244140625,1365.810546875C966.013671875,1366.3203125,969.0068359375,1367.78125,971.552734375,1367.2109375C999.162109375,1360.939453125,1025.998046875,1364.041015625,1051.591796875,1375.169921875C1063.44140625,1380.3203125,1074.0498046875,1388.28125,1085.228515625,1394.98046875L1180.05078125,1394.98046875C1128.1484375,1357.150390625,1084.02734375,1335.37109375,1037.5419921875,1336.919921875L1037.521484375,1336.919921875ZM64.50390625,659.685546875C41.6181640625,649.05859375,21.298828125,634.380859375,0.8759765625,616.810546875C0.8759765625,643.134765625,0.7333984375,669.19140625,1.05859375,693.052734375C14.681640625,703.251953125,25.59375,709.318359375,36.447265625,712.107421875C47.197265625,714.876953125,58.7421875,714.38671875,69.900390625,715.7109375C94.6591796875,718.62109375,116.9541015625,726.31640625,131.9404296875,748.162109375C132.9375,749.607421875,137.1123046875,750.197265625,138.08984375,749.912109375C148.880859375,746.77734375,132.55078125,721.0859375,126.2392578125,711.740234375C110.68359375,688.775390625,89.8125,671.412109375,64.525390625,659.685546875L64.50390625,659.685546875ZM1340.4296875,1394.80078125C1359,1394.80078125,1377.41015625,1394.98046875,1395.98046875,1394.98046875L1395.98046875,1354.55078125C1384.0703125,1354.201171875,1374.26953125,1358.48046875,1364.48046875,1363.470703125C1351.900390625,1369.859375,1340.599609375,1375.599609375,1340.41015625,1394.80078125L1340.4296875,1394.80078125ZM191.375,1282.890625C191.701171875,1271.1796875,183.046875,1264.51953125,171.33984375,1265.66015625C163.11328125,1266.4609375,157.3515625,1270.900390625,152.7900390625,1277.451171875C135.4423828125,1302.390625,134.119140625,1330.01953125,140.716796875,1358.25C143.66796875,1370.900390625,149.837890625,1382.759765625,154.541015625,1395L190.009765625,1395C186.40625,1373.810546875,181.98828125,1338.01953125,187.119140625,1311.98046875C189.0126953125,1302.37109375,191.08984375,1292.640625,191.375,1282.91015625L191.375,1282.890625ZM80.853515625,1286.041015625C61.837890625,1263.12109375,25.3291015625,1261.26953125,1.099609375,1268.330078125C0.7333984375,1282.28125,0.896484375,1299.51953125,0.896484375,1314.560546875C21.705078125,1315.87109375,37.505859375,1325.330078125,54.365234375,1331.259765625C59.12890625,1332.9296875,63.8125,1335.98046875,68.841796875,1335.701171875C85.802734375,1334.740234375,91.6875,1321.75,90.078125,1307.830078125C89.203125,1300.25,85.720703125,1291.91015625,80.853515625,1286.041015625ZM325.513671875,1246.791015625C341.08984375,1238.76953125,353.0625,1209.25,330.501953125,1202.6796875C314.4169921875,1199.720703125,299.5126953125,1210.37109375,284.1396484375,1213.58984375C265.75390625,1218.560546875,247.1435546875,1218.451171875,229.287109375,1212.509765625C221.6513671875,1210.80078125,208.72265625,1202.451171875,202.0849609375,1207.419921875L201.861328125,1207.73046875C199.8857421875,1211.099609375,203.427734375,1216.439453125,205.892578125,1219.5703125C233.787109375,1253.060546875,287.31640625,1269.58984375,325.513671875,1246.810546875L325.513671875,1246.791015625ZM225.3779296875,1334.560546875C220.0234375,1328.650390625,216.9482421875,1322.669921875,212.3671875,1317.03125C212,1316.560546875,211.5322265625,1316.169921875,211.0029296875,1315.830078125C208.25390625,1313.990234375,204.32421875,1315.1796875,203.306640625,1318.310546875C203.18359375,1318.720703125,203.103515625,1319.130859375,203.123046875,1319.509765625C203.388671875,1327.900390625,207.1748046875,1366.4609375,221.244140625,1394.98046875L341.7822265625,1394.98046875C329.5654296875,1391.6796875,244.7822265625,1358.03125,225.357421875,1334.560546875L225.3779296875,1334.560546875ZM196.505859375,1244.880859375C191.2529296875,1238,185.734375,1231.140625,179.341796875,1225.33984375C148.087890625,1196.919921875,110.337890625,1182.951171875,69.1064453125,1177.509765625C48.642578125,1174.810546875,27.12109375,1169.55078125,1.099609375,1175.419921875C0.509765625,1191.951171875,0.95703125,1220.509765625,0.95703125,1237.98046875C72.3232421875,1215.849609375,137.31640625,1221.73046875,187.83203125,1252.98046875C188.646484375,1253.490234375,189.6640625,1253.630859375,190.7841796875,1253.650390625C194.591796875,1253.650390625,197.7265625,1250.291015625,197.1572265625,1246.53125C197.0546875,1245.880859375,196.8515625,1245.310546875,196.505859375,1244.859375L196.505859375,1244.880859375ZM1349.900390625,820.595703125C1323.83984375,817.990234375,1301.0390625,807.56640625,1281.810546875,790.9140625C1281.369140625,790.525390625,1280.83984375,790.201171875,1280.26953125,789.916015625C1276.0703125,787.900390625,1271,791.259765625,1271.650390625,795.859375C1271.720703125,796.349609375,1271.859375,796.81640625,1272.060546875,797.265625C1274.650390625,802.86328125,1278.05078125,808.359375,1282.1796875,813.14453125C1298.9609375,832.56640625,1321.439453125,844.29296875,1346.970703125,851.4375C1362.970703125,855.91796875,1379.30078125,858.076171875,1396,854.716796875L1396,819.29296875C1380.62890625,819.861328125,1365.05078125,822.1015625,1349.919921875,820.595703125L1349.900390625,820.595703125ZM1276.009765625,205.251953125C1267.69921875,200.650390625,1260.599609375,193.87109375,1252.2890625,189.291015625C1237.7109375,181.208984375,1220.01953125,182.896484375,1208.759765625,192.751953125C1196.013671875,203.908203125,1196.013671875,217.404296875,1200.125,232.81640625C1204.30078125,248.4296875,1215.478515625,255.71875,1228.55078125,261.48046875C1250.90625,271.3125,1274.650390625,273.4296875,1298.73046875,272.697265625C1332.919921875,271.66015625,1365.439453125,263.841796875,1396,248.267578125L1396,222.94140625C1393.779296875,223.185546875,1391.560546875,223.349609375,1389.359375,223.6953125C1349.560546875,229.9453125,1311.51953125,224.978515625,1276.029296875,205.251953125L1276.009765625,205.251953125ZM1336.650390625,1324.150390625C1336.55078125,1324.359375,1336.4609375,1324.580078125,1336.400390625,1324.810546875C1334.83984375,1329.7109375,1340.66015625,1333.91015625,1344.970703125,1331.099609375C1345.060546875,1331.03125,1345.140625,1330.990234375,1345.220703125,1330.9296875C1360.689453125,1319.880859375,1377.4296875,1313.9296875,1396,1314.48046875L1396,1268.330078125C1367.490234375,1275.859375,1349.619140625,1297,1336.650390625,1324.169921875L1336.650390625,1324.150390625ZM1266.869140625,291.853515625C1251.802734375,288.943359375,1236.0625,286.41796875,1220.935546875,287.640625C1185.79296875,290.44921875,1160.21875,310.64453125,1139.9375,338.189453125C1139.75390625,338.43359375,1139.61328125,338.69921875,1139.51171875,338.982421875C1138.00390625,342.76953125,1142.23828125,346.578125,1146.025390625,345.091796875C1146.494140625,344.908203125,1146.921875,344.705078125,1147.330078125,344.439453125C1160.015625,336.154296875,1173.47265625,329.59765625,1188.703125,328.92578125C1208.33203125,328.072265625,1228.021484375,328.62109375,1247.669921875,328.25390625C1264.509765625,327.9296875,1281.5703125,328.78515625,1298.119140625,326.28125C1338.169921875,320.193359375,1367.4296875,294.705078125,1395.98046875,268.544921875L1395.98046875,261.78515625C1391.240234375,264.16796875,1386.150390625,266.041015625,1381.810546875,269.033203125C1346.76953125,293.33984375,1308.490234375,299.916015625,1266.849609375,291.853515625L1266.869140625,291.853515625ZM1366.900390625,448.103515625C1368.060546875,476.0546875,1373.37890625,494.255859375,1384.83984375,519.5390625C1386.720703125,523.671875,1393.12890625,535.07421875,1396,538.7578125L1396,293.890625C1393.900390625,297.126953125,1391.30078125,300.140625,1389.7890625,303.640625C1369.669921875,349.814453125,1364.869140625,398.44921875,1366.919921875,448.123046875L1366.900390625,448.103515625ZM1340.4296875,0.021484375C1340.4296875,7.8984375,1339.759765625,14.638671875,1340.580078125,21.212890625C1342.4296875,36.54296875,1346.439453125,51.220703125,1360.44921875,61.23828125C1362.55078125,62.724609375,1365.91015625,63.55859375,1368.41015625,63.19140625C1369.509765625,63.029296875,1370.849609375,58.95703125,1370.58984375,56.83984375C1368.060546875,37.560546875,1378.55078125,23.982421875,1396,21.82421875L1396,-1.8189894035458565e-12L1340.4296875,-1.8189894035458565e-12L1340.4296875,0.021484375ZM1309.259765625,0.08203125L1272.689453125,0.08203125C1272.98046875,2.30078125,1279.330078125,58.3671875,1349.009765625,122.23046875C1363.19921875,132.24609375,1378.2890625,146.884765625,1395.98046875,149.490234375L1395.98046875,94.400390625C1367.25,93.28125,1320.599609375,40.0859375,1309.259765625,0.08203125ZM1314.4296875,147.271484375C1308.669921875,138.6796875,1304.419921875,129.091796875,1298.9609375,120.275390625C1292.240234375,109.4453125,1282.58984375,103.09375,1269.390625,104.947265625C1256.73046875,106.73828125,1248.341796875,114.73828125,1245.328125,126.76953125C1243.71875,133.244140625,1244.0859375,140.796875,1245.673828125,147.373046875C1249.37890625,162.865234375,1259.970703125,173.9609375,1272.4296875,183.01953125C1309.76953125,210.1171875,1351.609375,216.7734375,1396,208.998046875L1396,179.4765625C1387.119140625,178.337890625,1338.30078125,179.517578125,1314.4296875,147.25L1314.4296875,147.271484375ZM1307.01953125,864.58984375C1280.669921875,846.2265625,1261.66015625,821.349609375,1245.61328125,793.90625C1245.44921875,793.640625,1245.287109375,793.396484375,1245.083984375,793.15234375C1241.58203125,788.857421875,1234.271484375,791.1171875,1233.884765625,796.634765625C1233.84375,797.08203125,1233.884765625,797.53125,1233.966796875,797.9765625C1246.28515625,859.845703125,1280.169921875,904.87890625,1339.0703125,929.34765625C1357.150390625,936.861328125,1376.369140625,939.62890625,1396,935.19140625L1396,882.830078125C1362.990234375,893.091796875,1333.9609375,883.380859375,1307.01953125,864.58984375ZM1377.41015625,1113.791015625C1383.740234375,1107.30078125,1389.869140625,1101.009765625,1395.98046875,1094.740234375L1395.98046875,1036.23046875C1384.599609375,1050.541015625,1370.609375,1090.689453125,1369.55078125,1110.330078125C1369.330078125,1114.5703125,1374.439453125,1116.849609375,1377.41015625,1113.810546875L1377.41015625,1113.791015625ZM1272.689453125,1394.98046875L1309.3203125,1394.98046875C1312.91015625,1313.5703125,1338.009765625,1263.951171875,1387.349609375,1241.109375C1390.140625,1239.830078125,1393.109375,1238.98046875,1396,1237.919921875L1396,1175.439453125C1317.060546875,1196.939453125,1251.578125,1309.98046875,1272.689453125,1394.98046875ZM0.8359375,1354.55078125L0.8359375,1394.98046875L72.546875,1394.98046875C56.767578125,1371.041015625,32.0078125,1355.259765625,0.8359375,1354.55078125ZM1361.16015625,704.431640625C1358.599609375,698.140625,1354.48046875,692.076171875,1349.8203125,686.638671875C1338.419921875,673.38671875,1319.580078125,674.66796875,1310.37890625,689.205078125C1303.169921875,700.583984375,1301.19921875,712.798828125,1304.12890625,725.54296875C1312.189453125,760.498046875,1353.099609375,786.71875,1396,791.849609375L1396,738.04296875C1378.529296875,731.1015625,1367.4296875,719.7421875,1361.16015625,704.431640625ZM1374.12890625,581.7734375C1373.990234375,581.306640625,1373.76953125,580.857421875,1373.48046875,580.431640625C1370.939453125,576.64453125,1364.91015625,577.091796875,1363.140625,581.306640625C1362.94921875,581.732421875,1362.849609375,582.162109375,1362.810546875,582.587890625C1361.62890625,596.83984375,1360.44921875,611.150390625,1360.5703125,625.421875C1360.80078125,650.259765625,1371.4609375,670.943359375,1388.30078125,688.654296875C1390.259765625,690.7109375,1393.390625,691.626953125,1395.98046875,693.072265625L1395.98046875,617.076171875C1385.12890625,607.52734375,1378.220703125,595.619140625,1374.12890625,581.794921875L1374.12890625,581.7734375ZM145.07421875,1261.689453125C145.4814453125,1261.349609375,145.765625,1260.859375,145.96875,1260.291015625C147.39453125,1256.439453125,143.9130859375,1252.5703125,139.861328125,1253.099609375C138.29296875,1253.310546875,136.8681640625,1253.689453125,135.748046875,1254.509765625C92.623046875,1286.37109375,79.6123046875,1347.650390625,105.5732421875,1394.9609375L147.802734375,1394.9609375C143.2001953125,1388.609375,138.353515625,1382.400390625,134.017578125,1375.859375C109.013671875,1338.16015625,112.02734375,1291.009765625,145.09375,1261.669921875L145.07421875,1261.689453125ZM1266.5390625,663.4921875C1313.439453125,621.431640625,1347.05078125,565.8125,1352.73046875,502.357421875C1353.140625,484.50390625,1353.509765625,463.65625,1343.140625,448.18359375C1337.73046875,440.896484375,1328.650390625,436.4375,1319.029296875,436.21484375C1300.94921875,435.74609375,1289.189453125,453.416015625,1283.400390625,468.400390625C1270.859375,513.025390625,1283.16015625,560.458984375,1271.41015625,605.2890625C1264.890625,631.529296875,1252.69921875,655.857421875,1236.673828125,677.599609375C1233.5390625,681.814453125,1226.798828125,690.689453125,1228.3671875,693.68359375L1228.48828125,693.927734375C1229.609375,696.0859375,1235.025390625,692.787109375,1237.12109375,690.89453125C1247.0390625,682.017578125,1256.439453125,672.328125,1266.5390625,663.4921875ZM1336.94921875,326.380859375C1302.48046875,346.759765625,1261.109375,334.341796875,1224.1328125,344.705078125C1208.025390625,348.470703125,1187.501953125,358.9140625,1185.853515625,377.501953125C1183.958984375,396.2109375,1205.1953125,408.791015625,1221.974609375,408.7109375L1222.625,408.7109375C1267.05078125,404.4140625,1308.73046875,373.55078125,1340.08984375,342.97265625C1346.4609375,336.31640625,1354.240234375,330.06640625,1358.98046875,322.310546875C1365.029296875,308.099609375,1341.55078125,324.28515625,1336.94921875,326.361328125L1336.94921875,326.380859375ZM1264.220703125,1135.330078125C1263.80078125,1132.201171875,1263.1796875,1129.01953125,1262.4296875,1125.849609375C1250.865234375,1076.23046875,1208.8203125,1049.9296875,1161.3984375,1048.73046875L1160.70703125,1048.73046875C1141.56640625,1048.669921875,1122,1055.28125,1107.279296875,1067.541015625C1100.560546875,1072.609375,1089.0146484375,1087.26953125,1104.205078125,1089.140625C1148.28515625,1089.419921875,1189.2109375,1117.359375,1212.078125,1154.220703125C1219.611328125,1164.75,1224.82421875,1185.2109375,1240.298828125,1185.330078125C1261.390625,1182.240234375,1266.849609375,1153.291015625,1264.240234375,1135.310546875L1264.220703125,1135.330078125ZM1143.115234375,377.84765625C1139.81640625,375.1796875,1134.33984375,370.517578125,1130.287109375,373.103515625C1128.455078125,374.548828125,1128.822265625,378.111328125,1130.0234375,382C1134.970703125,395.640625,1137.6171875,410.27734375,1133.279296875,424.345703125C1128.39453125,441.955078125,1114.181640625,454.943359375,1107.0546875,471.392578125C1101.232421875,483.443359375,1102.53515625,499.42578125,1111.25,509.80859375C1120.0458984375,519.173828125,1132.017578125,510.78515625,1140.203125,503.55859375C1158.62890625,487.2109375,1168.546875,463.94140625,1169.380859375,439.41015625L1169.380859375,438.71875C1169.115234375,415.224609375,1160.40234375,393.318359375,1143.115234375,377.84765625ZM1179.51953125,269.4609375C1185.5078125,265.490234375,1196.94921875,254.986328125,1183.796875,252.419921875C1120.5546875,252.419921875,1065.3349609375,302.17578125,1067.025390625,366.955078125L1067.025390625,367.626953125C1067.3515625,385.625,1072.0341796875,403.580078125,1081.2978515625,422.248046875C1089.890625,439.04296875,1099.501953125,433.83203125,1098.462890625,416.4453125C1097.201171875,357.630859375,1132.892578125,303.31640625,1179.51953125,269.4609375ZM1149.650390625,561.5390625C1149.814453125,547.796875,1153.45703125,534.197265625,1160.361328125,521.310546875C1161.9296875,518.216796875,1164.453125,512.12890625,1161.17578125,510.419921875C1148.75390625,507.95703125,1132.5078125,529.169921875,1128.046875,539.8359375C1111.0869140625,580.8984375,1115.443359375,626.927734375,1133.056640625,666.97265625C1145.4765625,696.30859375,1162.580078125,724.708984375,1163.2109375,757.546875L1163.2109375,758.19921875C1163.39453125,772.490234375,1157.0625,788.552734375,1146.291015625,800.64453125C1140.263671875,808.03515625,1131.12109375,814.48828125,1130.4296875,824.6875C1132.017578125,843.458984375,1159.28125,829.59375,1168.50390625,824.748046875C1177.322265625,819.6796875,1184.7734375,812.9609375,1190.271484375,804.20703125C1206.091796875,776.1328125,1204.361328125,739.935546875,1196.74609375,709.521484375C1184.693359375,667.951171875,1164.37109375,629.26953125,1152.9296875,587.6171875C1150.689453125,579.12890625,1149.48828125,570.23046875,1149.62890625,561.5390625L1149.650390625,561.5390625ZM813.38671875,1265.599609375L813.5703125,1265.640625C814.4248046875,1265.76953125,815.158203125,1264.810546875,815.6875,1263C817.5400390625,1254.939453125,816.828125,1246.12109375,817.8046875,1237.650390625C819.515625,1218.150390625,825.9296875,1198.890625,836.537109375,1182.48046875C855.5751953125,1153.53125,878.705078125,1127.23046875,902.365234375,1102.23046875C910.1015625,1093.880859375,917.7578125,1085.37109375,923.2763671875,1075.33984375C943.779296875,1037.12109375,918.61328125,1011.880859375,881.943359375,1036.740234375C819.69921875,1085.37109375,792.556640625,1173.140625,807.0751953125,1250.291015625C808.072265625,1254.919921875,810.2099609375,1264,813.38671875,1265.62109375L813.38671875,1265.599609375ZM44.408203125,1073.810546875C43.736328125,1084.48046875,66.541015625,1071.83984375,72.2822265625,1071.310546875C85.638671875,1067.701171875,99.587890625,1068.26953125,113.330078125,1068.78125C141.9169921875,1070.609375,169.7509765625,1065.48046875,193.6953125,1049.4609375C234.78515625,1021.689453125,187.1396484375,1013.041015625,160.7314453125,1011.470703125L160.0185546875,1011.470703125C121.12890625,1009.78125,58.66015625,1036.169921875,44.408203125,1073.810546875ZM63.201171875,808.33984375C63.4052734375,806.935546875,62.3662109375,805.55078125,60.94140625,805.53125C60.697265625,805.53125,60.47265625,805.5703125,60.26953125,805.673828125C43.044921875,815.05859375,20.0771484375,817.3984375,1.05859375,819.29296875C0.65234375,828.80078125,0.8759765625,845.146484375,0.8759765625,854.716796875C29.21875,852.498046875,60.2890625,828.26953125,63.181640625,808.33984375L63.201171875,808.33984375ZM939.158203125,956.892578125C941.294921875,952.353515625,946.9150390625,941.076171875,940.888671875,939.466796875C934.677734375,939.771484375,928.244140625,949.259765625,923.072265625,954.41015625C906.5791015625,971.91796875,887.5009765625,985.333984375,865.4912109375,994.455078125C837.861328125,1006.3203125,806.912109375,1009.3203125,777.388671875,1004C757.677734375,1001.009765625,738.2744140625,993.353515625,718.50390625,993.314453125C682.4853515625,991.9921875,653.0634765625,1017.25,635.125,1046.490234375C630.0751953125,1054.060546875,627.0419921875,1065.16015625,638.5859375,1061.41015625C644.1865234375,1059.33984375,650.009765625,1055.220703125,655.568359375,1052.490234375C667.5400390625,1046.220703125,681.5283203125,1045.8203125,695.3740234375,1046.01953125C720.072265625,1046.490234375,745.7265625,1052.330078125,769.814453125,1054.26953125L770.46484375,1054.26953125C846.9833984375,1056,909.8779296875,1021.451171875,939.158203125,956.892578125ZM94.6591796875,878.697265625C113.9013671875,856.833984375,128.4990234375,832.443359375,133.79296875,803.4140625C134.017578125,802.171875,133.712890625,800.828125,133.181640625,799.46484375C131.716796875,795.63671875,127.095703125,793.986328125,123.591796875,796.125C122.595703125,796.736328125,121.69921875,797.427734375,120.966796875,798.26171875C115.142578125,805.08203125,110.560546875,812.98046875,104.595703125,819.638671875C76.55859375,850.787109375,42.9423828125,872.875,1.2421875,882.28125L1.2421875,935.19140625C44.693359375,924.50390625,72.26171875,904.14453125,94.6591796875,878.697265625ZM0.85546875,1094.470703125C27.9150390625,1071.16015625,47.7880859375,1044.470703125,63.181640625,1014.669921875C69.248046875,1002.900390625,73.443359375,989.587890625,75.478515625,976.517578125C76.802734375,968.048828125,74.318359375,957.97265625,70.61328125,949.970703125C63.955078125,935.537109375,46.30078125,934.21484375,36.89453125,947.080078125C31.173828125,954.91796875,26.7353515625,963.91796875,22.927734375,972.916015625C17.34765625,986.087890625,12.64453125,1012.5703125,0.591796875,1037.2109375C1.05859375,1053.919921875,0.85546875,1076.25,0.85546875,1094.470703125ZM246.4921875,1181.439453125L247.123046875,1181.439453125C316.982421875,1182.580078125,373.4853515625,1107.76953125,372.630859375,1014.87109375C372.5078125,1007.87109375,371.5302734375,993.25390625,366.134765625,991.216796875C357.84765625,992.5,358.3359375,1023.140625,355.302734375,1031.951171875C342.8203125,1093.330078125,298.5556640625,1124.359375,240.607421875,1135.490234375C206.197265625,1145.78125,209.537109375,1181.541015625,246.4716796875,1181.439453125L246.4921875,1181.439453125ZM1237.85546875,92.853515625C1232.4609375,72.23046875,1209.0859375,58.265625,1188.62109375,57.533203125L1187.9296875,57.533203125C1156.859375,57.125,1131.7109375,75.427734375,1118.92578125,102.240234375C1117.236328125,106.228515625,1113.123046875,113.923828125,1117.052734375,117.01953125C1120.0859375,118.791015625,1128.33203125,112.05078125,1132.36328125,109.140625C1150.0390625,96.0703125,1165.328125,90.77734375,1186.279296875,97.39453125C1198.29296875,100.7734375,1209.166015625,108.48828125,1221.220703125,111.09375C1231.94921875,113.45703125,1240.359375,103.521484375,1237.875,92.853515625L1237.85546875,92.853515625ZM64.76953125,748.466796875C45.4873046875,754.818359375,27.732421875,749.322265625,10.1201171875,741.97265625C7.412109375,740.853515625,4.560546875,739.244140625,1.283203125,738.166015625L1.283203125,791.87109375C23.416015625,792.439453125,41.08984375,784.31640625,56.7470703125,771.14453125C61.837890625,766.87109375,66.21484375,761.59765625,70.3681640625,756.345703125C73.6064453125,752.25390625,72.404296875,744.802734375,64.76953125,748.4453125L64.76953125,748.466796875ZM71.01953125,294.826171875C70.53125,307.123046875,71.5703125,319.48046875,72.46484375,331.775390625C72.46484375,332.041015625,72.546875,332.306640625,72.6494140625,332.55078125C73.931640625,335.9296875,78.798828125,335.767578125,80.58984375,332.630859375C80.833984375,332.224609375,81.05859375,331.796875,81.2412109375,331.349609375C81.771484375,330.208984375,81.2412109375,328.580078125,81.2412109375,327.17578125C81.2412109375,304.822265625,83.1142578125,282.490234375,91.015625,261.6015625C100.23828125,237.212890625,107.8740234375,211.5625,122.2080078125,189.779296875C159.1640625,133.611328125,162.6044921875,28.318359375,147.78125,0.123046875L105.552734375,0.123046875C111.884765625,13.009765625,117.28125,23.615234375,119.1328125,34.955078125C126.3212890625,79.25390625,121.4140625,122.251953125,105.2265625,164.16796875C88.9169921875,206.390625,72.8515625,248.837890625,71.01953125,294.826171875ZM186.833984375,78.908203125C192.8818359375,90.67578125,203.794921875,97.677734375,217.783203125,97.537109375C227.740234375,97.43359375,232.09765625,90.87890625,228.513671875,81.697265625C227.109375,78.07421875,225.0927734375,74.591796875,222.8125,71.416015625C208.1728515625,50.935546875,190.193359375,6.697265625,189.990234375,0.1015625C181.072265625,0.1015625,164.701171875,0.1015625,154.521484375,0.1015625C157.5751953125,10.994140625,158.87890625,15.697265625,161.56640625,22.271484375C169.404296875,41.388671875,177.345703125,60.544921875,186.814453125,78.908203125L186.833984375,78.908203125ZM253.904296875,28.197265625C287.1328125,45.927734375,322.88671875,51.181640625,359.9853515625,48.00390625C386.59765625,45.744140625,411.947265625,38.84375,434.568359375,24.064453125C434.609375,24.04296875,434.6494140625,24.001953125,434.6904296875,23.982421875C439.6181640625,20.623046875,436.5634765625,12.5,430.638671875,13.25390625C430.59765625,13.25390625,430.5771484375,13.25390625,430.5361328125,13.25390625C400.6064453125,17.650390625,343.9404296875,1.017578125,341.619140625,0.08203125C303.421875,-0.01953125,261.35546875,0.08203125,220.71484375,0.08203125C230.58984375,13.15234375,241.544921875,21.599609375,253.904296875,28.17578125L253.904296875,28.197265625ZM0.9375,524.34375C0.9375,527.927734375,1.05859375,534.5234375,1.05859375,538.7578125C14.8642578125,559.5234375,37.546875,601.521484375,68.80078125,624.73046875C79.0625,632.365234375,90.4443359375,636.5390625,102.92578125,638.0859375C119.5810546875,640.162109375,137.05078125,632.2421875,143.708984375,619.72265625C149.00390625,609.806640625,146.4169921875,597.958984375,138.130859375,592.869140625C76.904296875,555.330078125,34.2265625,503.029296875,13.478515625,433.955078125C1.42578125,393.869140625,-1.283203125,353.111328125,12.9296875,312.884765625C18.0400390625,298.4296875,25.94140625,284.97265625,32.08984375,270.84375C32.578125,269.74609375,32.4765625,268.380859375,32.2109375,266.95703125C31.72265625,264.37109375,29.095703125,262.76171875,26.6123046875,263.638671875C25.47265625,264.044921875,24.4541015625,264.5546875,23.7412109375,265.34765625C20.830078125,268.6875,6.759765625,281.77734375,1.05859375,293.87109375C-1.201171875,328.05078125,0.85546875,388.71875,0.8759765625,423.04296875C0.8759765625,456.81640625,0.8359375,490.5703125,0.9375,524.34375ZM46.892578125,48.06640625C54.32421875,63.314453125,57.173828125,79.41796875,53.611328125,96.3359375C51.5751953125,106.005859375,54.853515625,113.232421875,62.611328125,116.712890625C69.7373046875,119.91015625,78.1875,117.8125,82.9111328125,109.607421875C87.30859375,101.974609375,98.060546875,72.23046875,80.79296875,15.982421875C79.14453125,10.5859375,72.546875,0.1015625,72.546875,0.1015625C53.4072265625,0.1015625,20.056640625,0.1015625,0.8359375,0.1015625C0.8359375,3.521484375,1.140625,14.251953125,1.140625,21.82421875C22.4580078125,20.94921875,37.8515625,29.5,46.8720703125,48.044921875L46.892578125,48.06640625ZM295.3994140625,70.845703125C289.046875,67.630859375,282.775390625,64.046875,276.443359375,60.8515625C272.25,58.794921875,267.2607421875,57.04296875,264.470703125,58.427734375C259.6865234375,60.931640625,264.0234375,68.138671875,266.7109375,71.66015625C295.8681640625,109.0390625,333.2109375,131.005859375,374.50390625,132.8984375L375.1953125,132.8984375C492.841796875,136.07421875,510.962890625,-3.908203125,478.7509765625,29.90625C436.6650390625,92.3046875,361.00390625,105.39453125,295.3994140625,70.845703125ZM597.4375,144.951171875C597.4765625,145.296875,597.55859375,145.623046875,597.640625,145.96875C599.126953125,151.6484375,606.3955078125,152.869140625,609.591796875,147.962890625C609.9794921875,147.3515625,610.2841796875,146.7421875,610.48828125,146.0703125C614.7431640625,131.576171875,619.466796875,116.998046875,621.380859375,102.095703125C625.779296875,68.056640625,632.8046875,46.1328125,601.85546875,5.904296875C600.287109375,3.419921875,599.3515625,2.50390625,596.9482421875,0.142578125C566.6103515625,0.142578125,535.0302734375,0.1015625,504.162109375,0.1015625C516.58203125,8.591796875,527.86328125,15.533203125,538.4501953125,24.53125C575.466796875,55.984375,590.798828125,98.390625,597.416015625,144.970703125L597.4375,144.951171875ZM874.591796875,80.904296875C882.552734375,83.265625,891.146484375,83.732421875,899.513671875,84.302734375C901.611328125,84.4453125,904.80859375,82.10546875,905.826171875,80.048828125C906.498046875,78.705078125,904.564453125,75.48828125,903.017578125,73.798828125C901.18359375,71.763671875,898.49609375,70.5,896.236328125,68.83203125C872.556640625,51.2421875,869.765625,41.205078125,843.58203125,0.1015625C821.1240234375,0.1015625,799.21484375,0.1015625,776.3701171875,0.1015625C777.5712890625,2.423828125,833.5244140625,68.689453125,874.591796875,80.923828125L874.591796875,80.904296875ZM999.1015625,25.08203125C999.5283203125,25,999.9150390625,24.837890625,1000.302734375,24.61328125C1004.2314453125,22.373046875,1003.681640625,16.265625,999.447265625,14.638671875C998.9990234375,14.474609375,998.55078125,14.373046875,998.103515625,14.353515625C983.0361328125,14.23046875,956.1796875,2.728515625,948.4208984375,0.203125C928.12109375,-0.08203125,899.43359375,0.1015625,879.1328125,0.060546875C910.306640625,25.08203125,972.041015625,30.517578125,999.1015625,25.060546875L999.1015625,25.08203125ZM1009.484375,76.302734375C1023.5947265625,85.259765625,1040.1689453125,89.779296875,1057.0078125,90.00390625L1057.7412109375,90.00390625C1083.76171875,90.2890625,1110.4150390625,78.1953125,1125.64453125,56.8203125C1130.20703125,50.95703125,1134.2578125,40.248046875,1131.203125,36.54296875C1120.6357421875,23.63671875,1083.5791015625,71.82421875,1021.4375,60.525390625C1001.666015625,56.677734375,988.10546875,60.994140625,1009.484375,76.302734375ZM1201.388671875,49.572265625C1204.767578125,50.814453125,1208.474609375,48.392578125,1208.943359375,44.828125C1209.064453125,43.83203125,1209.04296875,42.916015625,1208.71875,42.12109375C1201.896484375,26.119140625,1181.8828125,0.142578125,1179.78515625,0.142578125C1145.78125,0.021484375,1119.19140625,0.060546875,1085.2080078125,0.060546875C1145.599609375,34.0390625,1161.6640625,18.791015625,1200.16796875,48.921875C1200.533203125,49.205078125,1200.939453125,49.4296875,1201.408203125,49.591796875L1201.388671875,49.572265625ZM604.17578125,206.412109375C600.30859375,210.33984375,595.2783203125,213.23046875,593.34375,218.056640625C591.755859375,222.5546875,595.970703125,224.814453125,600.6328125,223.59375C616.861328125,219.48046875,630.380859375,208.751953125,645.0205078125,200.99609375C665.8291015625,189.94140625,683.7880859375,175.140625,699.263671875,157.736328125C713.677734375,142.568359375,723.1875,123.431640625,722.7998046875,101.873046875L722.7998046875,101.220703125C724.470703125,54.111328125,657.9501953125,36.380859375,653.4912109375,91.021484375C656.525390625,134.955078125,635.5732421875,176.66796875,604.15625,206.412109375L604.17578125,206.412109375ZM907.8623046875,116.978515625C908.06640625,116.978515625,908.2705078125,116.91796875,908.47265625,116.876953125C912.1796875,115.98046875,913.2578125,110.462890625,909.8984375,108.650390625C908.6162109375,107.958984375,904.7880859375,106.83984375,903.4033203125,106.63671875C837.107421875,96.35546875,770.201171875,31.677734375,749.453125,0.1015625C726.6279296875,0.1015625,702.052734375,0.1015625,677.29296875,0.1015625C679.10546875,3.84765625,680.8974609375,6.33203125,682.240234375,8.611328125C733.2861328125,95.58203125,829.1259765625,123.57421875,907.8623046875,116.95703125L907.8623046875,116.978515625Z" fill="url(#render-4-a)" style="fill: url(&quot;#render-4-a&quot;);"/></g></g><g id="shape-30d8a795-6231-809b-8007-8786453cd024"><defs fill="none" style="fill: rgb(0, 0, 0);"/></g></g></g></g></g></g></g></g></svg>